<svg width="24" height="24" viewBox="0 0 24 24" fill="none" xmlns="http://www.w3.org/2000/svg">
<path d="M19.5 21.5H4.5V6.5C4.5 6.5 5.69491 7 6.5 7H8.53613C8.44907 7.15046 8.37091 7.30672 8.30371 7.46875L7.38086 7.08691C7.12964 7.69349 7 8.34346 7 9H8C8 9.5421 8.10831 10.0588 8.30371 10.5303L7.38086 10.9131C7.63213 11.5197 8.00055 12.0709 8.46484 12.5352L9.17188 11.8281C9.54018 12.1964 9.98007 12.4926 10.4688 12.6953L10.0869 13.6191C10.6935 13.8704 11.3435 14 12 14V13C12.5422 13 13.0587 12.8908 13.5303 12.6953L13.9131 13.6191C14.5197 13.3679 15.0709 12.9994 15.5352 12.5352L14.8281 11.8281C15.1966 11.4596 15.4926 11.0193 15.6953 10.5303L16.6191 10.9131C16.8704 10.3065 17 9.65654 17 9H16C16 8.45744 15.891 7.94051 15.6953 7.46875L16.6201 7.08691C16.3688 6.48008 15.9996 5.92928 15.5352 5.46484L14.8281 6.17188C14.4597 5.80348 14.0201 5.50644 13.5312 5.30371L13.9141 4.38086C13.3073 4.12941 12.6568 4 12 4V5C11.4576 5 10.9404 5.10809 10.4688 5.30371L10.0869 4.38086C9.50625 4.62138 8.97688 4.96973 8.52539 5.40625C8.50935 5.27252 8.5 5.13626 8.5 5V2.5H19.5V21.5ZM7 19V20H17V19H7ZM7 18H17V17H7V18ZM7 16H11V15H7V16ZM9.17188 6.17188C9.04626 6.29749 8.9284 6.43092 8.82031 6.57227C8.72127 6.3065 8.60544 5.94083 8.54395 5.54395L9.17188 6.17188Z" fill="#D9D9D9"/>
<circle cx="12" cy="9" r="2" fill="#D9D9D9"/>
<g filter="url(#filter0_d_121_109)">
<path d="M8.40039 5C8.40039 5.51499 8.52864 6.02629 8.65527 6.40625C8.71876 6.59671 8.78233 6.75577 8.83008 6.86719C8.83502 6.87872 8.84014 6.88988 8.84473 6.90039H6.5C6.11354 6.90039 5.62533 6.7788 5.22754 6.6543C5.03025 6.59253 4.85757 6.53072 4.73438 6.48438C4.71399 6.47671 4.69528 6.46866 4.67773 6.46191L8.40039 2.74023V5Z" stroke="#D9D9D9" stroke-width="0.2" shape-rendering="crispEdges"/>
</g>
<defs>
<filter id="filter0_d_121_109" x="0.5" y="2.5" width="12.5" height="12.5" filterUnits="userSpaceOnUse" color-interpolation-filters="sRGB">
<feFlood flood-opacity="0" result="BackgroundImageFix"/>
<feColorMatrix in="SourceAlpha" type="matrix" values="0 0 0 0 0 0 0 0 0 0 0 0 0 0 0 0 0 0 127 0" result="hardAlpha"/>
<feOffset dy="4"/>
<feGaussianBlur stdDeviation="2"/>
<feComposite in2="hardAlpha" operator="out"/>
<feColorMatrix type="matrix" values="0 0 0 0 0 0 0 0 0 0 0 0 0 0 0 0 0 0 0.25 0"/>
<feBlend mode="normal" in2="BackgroundImageFix" result="effect1_dropShadow_121_109"/>
<feBlend mode="normal" in="SourceGraphic" in2="effect1_dropShadow_121_109" result="shape"/>
</filter>
</defs>
</svg>
