<svg width="24" height="24" viewBox="0 0 24 24" fill="none" xmlns="http://www.w3.org/2000/svg">
<path d="M16.6455 5.5C17.4632 5.5 18.1991 5.9977 18.5029 6.75684L19.9805 10.4521C19.993 10.4835 20.0123 10.5122 20.0361 10.5361L21.4141 11.9141C21.7891 12.2891 21.9999 12.7978 22 13.3281V15.9912C22 16.8841 21.4056 17.6597 20.5273 17.8203C18.926 18.1128 16.0433 18.5 12 18.5C7.95668 18.5 5.07395 18.1128 3.47266 17.8203C2.59438 17.6597 2 16.8841 2 15.9912V13.3281C2.00008 12.7978 2.21094 12.2891 2.58594 11.9141L3.97168 10.5283C3.99052 10.5094 4.00662 10.4877 4.01855 10.4639L5.94727 6.60547C6.28607 5.92796 6.97882 5.5 7.73633 5.5H16.6455ZM14 15.5C14 15.5 12.7871 15.625 12 15.625C11.2129 15.625 10 15.5 10 15.5V17.5C10 17.5 11.2129 17.625 12 17.625C12.7871 17.625 14 17.5 14 17.5V15.5ZM3.40234 13.1602C3.22331 13.0895 3.03431 13.2382 3.06152 13.4287L3.20898 14.4648C3.23056 14.6154 3.34701 14.7912 3.49609 14.8213C3.67984 14.8583 3.98794 14.9147 4.5 15C5.61269 15.1854 6.45025 15.0958 6.80859 15.0371C6.9218 15.0186 7 14.9194 7 14.8047V14.4453C7 14.3307 6.92267 14.231 6.81152 14.2031C6.36816 14.0923 5.27639 13.8191 5 13.75C4.76129 13.6903 3.91441 13.3621 3.40234 13.1602ZM20.5977 13.1602C20.0856 13.3621 19.2387 13.6903 19 13.75C18.7236 13.8191 17.6318 14.0923 17.1885 14.2031C17.0773 14.231 17 14.3307 17 14.4453V14.8047C17 14.9194 17.0782 15.0186 17.1914 15.0371C17.5498 15.0958 18.3873 15.1854 19.5 15C20.0121 14.9147 20.3202 14.8583 20.5039 14.8213C20.653 14.7912 20.7694 14.6154 20.791 14.4648L20.9385 13.4287C20.9657 13.2382 20.7767 13.0895 20.5977 13.1602ZM8.09961 6.75C7.7305 6.75014 7.39153 6.95363 7.21777 7.2793L5.5 10.5C5.5 10.5 7.5 11 12 11C16.5 11 18.5 10.5 18.5 10.5L17.251 7.37891C17.0991 6.99933 16.732 6.75011 16.3232 6.75H8.09961Z" fill="#D9D9D9"/>
<path d="M21 18.9996C21 19.5519 20.5523 19.9996 20 19.9996H19C18.4477 19.9996 18 19.5519 18 18.9996V18.485C19.0643 18.3669 19.9275 18.2342 20.5811 18.1148C20.7283 18.0879 20.8679 18.0453 21 17.9908V18.9996ZM21 17.6617C20.8543 17.7346 20.6963 17.789 20.5273 17.8199L19.8672 17.9332C19.3529 18.0159 18.7475 18.099 18.0537 18.1773C18.188 17.7835 18.5607 17.4996 19 17.4996H21V17.6617Z" fill="#D9D9D9"/>
<path d="M3 17.9908C3.13212 18.0452 3.27173 18.0879 3.41895 18.1148C4.07234 18.2342 4.93519 18.3669 5.99902 18.4849C5.9991 18.4898 6 18.4947 6 18.4996V18.9996C6 19.5519 5.55228 19.9996 5 19.9996H4C3.44772 19.9996 3 19.5519 3 18.9996V17.9908ZM5 17.4996C5.43921 17.4996 5.81096 17.7836 5.94531 18.1773C4.92839 18.0624 4.10157 17.9348 3.47266 17.8199C3.30369 17.789 3.14574 17.7346 3 17.6617V17.4996H5Z" fill="#D9D9D9"/>
<path d="M19.5 9.5C19.5 9.22386 19.7239 9 20 9H21.5C21.7761 9 22 9.22386 22 9.5V10.0158C22 10.2478 21.8404 10.4493 21.6145 10.5025L20.1145 10.8554C19.8007 10.9293 19.5 10.6911 19.5 10.3687V9.5Z" fill="#D9D9D9"/>
<path d="M4.5 9.5C4.5 9.22386 4.27614 9 4 9H2.5C2.22386 9 2 9.22386 2 9.5V10.0158C2 10.2478 2.15962 10.4493 2.38548 10.5025L3.88548 10.8554C4.19933 10.9293 4.5 10.6911 4.5 10.3687V9.5Z" fill="#D9D9D9"/>
</svg>
