<svg width="24" height="24" viewBox="0 0 24 24" fill="none" xmlns="http://www.w3.org/2000/svg">
<path d="M8 21H5.5L5.64746 18.3379L7 18L8 21ZM18.3525 18.3555L18.3281 18.3975L16.7666 21H8.21094L7.20215 17.9756L8.16895 3H9.24023L9 6.98828C8.99354 7.09842 9.07831 7.19261 9.18848 7.19922C9.29855 7.20559 9.39281 7.12183 9.39941 7.01172L9.63965 3H17.5L18.3525 18.3555ZM18.5 21H17L18.3721 18.7109L18.5 21ZM9.31055 18.9365L8.72266 20.7002H11.3232L11.1787 20.4102L10.6787 19.4102L10.6494 19.3506L10.5898 19.3213L9.38281 18.7178L9.31055 18.9365ZM10.5 19.5L11 20.5H9L9.5 19L10.5 19.5ZM6.80859 17.8408L5.65918 18.1279L6.5 3H7.7666L6.80859 17.8408Z" fill="#D9D9D9"/>
<path d="M5 18.5L7 18L8 21H3.5L5 18.5Z" fill="#D9D9D9"/>
<path d="M18.5 18.5L20.5 18L21.5 21H17L18.5 18.5Z" fill="#D9D9D9"/>
<path d="M3 19L4 19.5L4.5 20.5H2.5L3 19Z" fill="#D9D9D9"/>
</svg>
