<svg width="24" height="24" viewBox="0 0 24 24" fill="none" xmlns="http://www.w3.org/2000/svg">
<path d="M20.4997 9.37617C21.6042 9.37617 22.4995 10.2717 22.4997 11.3762V19.3762C22.4997 20.4807 21.6043 21.3762 20.4997 21.3762H3.49969C2.39526 21.376 1.49969 20.4806 1.49969 19.3762V11.3762C1.49985 10.2718 2.39537 9.37634 3.49969 9.37617H20.4997ZM4.99969 14.5002H1.99969V16.5002H4.99969V20.8762H7.99969V16.5002H15.9997V20.8762H18.9997V16.5002H21.9997V14.5002H18.9997V9.87617H15.9997V14.5002H7.99969V9.87617H4.99969V14.5002Z" fill="#D9D9D9"/>
<path d="M5.5 20.5C5.5 17.9607 5.5 8.56957 5.5 7.06365C5.5 0.569572 18.5 0.569572 18.5 7.06365C18.5 8.56957 18.5 18.1768 18.5 20.5C17.7189 20.5 17.2811 20.5 16.5 20.5C16.5 17.8687 16.5 8.56956 16.5 7.06365C16.5 3.06957 7.5 3.06957 7.5 7.06365C7.5 8.56957 7.5 17.8685 7.5 20.5C6.71895 20.5 6.28104 20.5 5.5 20.5Z" fill="#D9D9D9"/>
<path d="M21.75 14.25V16.75H2.25V14.25H21.75Z" stroke="#D9D9D9" stroke-width="0.5"/>
</svg>
