<svg width="24" height="24" viewBox="0 0 24 24" fill="none" xmlns="http://www.w3.org/2000/svg">
<path d="M19 15V23H1V10L7 15V10L13 15V10L19 15ZM3 21H5V18H3V21ZM9 21H11V18H9V21ZM15 18V21H17V18H15Z" fill="#D9D9D9"/>
<path d="M19 15V23H14C14 23 14.6912 22.9993 15.4111 21H17V18H16.1641C16.3905 16.7247 16.5912 15.1241 16.7393 13.1152L19 15ZM21 5C21 23 24 23 24 23H19.5V14.7656L19.3203 14.6162L16.7812 12.5C16.9168 10.4334 17 7.96017 17 5C18.7222 5 19.5 5 21 5Z" fill="#D9D9D9"/>
<path d="M16.5 1.5H18C18 1.5 18.5 2 18.5 2.5C18.5 3 18 3 18 3.5C18 4 18.5 4.5 18.5 4.5H17.5385C17.5385 4.5 17.0769 4 17.0769 3.5C17.0769 3 17.5 3 17.5 2.5C17.5 2 16.5 1.5 16.5 1.5Z" fill="#D9D9D9"/>
<path d="M18.5 1.5H20C20 1.5 20.5 2 20.5 2.5C20.5 3 20 3 20 3.5C20 4 20.5 4.5 20.5 4.5H19.5385C19.5385 4.5 19.0769 4 19.0769 3.5C19.0769 3 19.5 3 19.5 2.5C19.5 2 18.5 1.5 18.5 1.5Z" fill="#D9D9D9"/>
</svg>
