<svg width="24" height="24" viewBox="0 0 24 24" fill="none" xmlns="http://www.w3.org/2000/svg">
<path d="M22 4.92011C22.6151 4.96327 22.9936 4.99858 23 4.99921V19.4865C22.9767 19.4835 15.4965 18.5036 13 20.9846C12.7072 20.9905 12.1676 21.0041 11.5869 20.9982L11 20.9846C8.50446 18.6231 1.02895 19.4958 0.999993 19.4992C0.999992 18.5469 0.999993 6.77481 0.999993 4.99921C1.09209 4.99921 1.45569 4.97048 1.99999 4.93281V5.43378C1.83983 5.44475 1.69575 5.45391 1.57031 5.46308C1.54649 5.46482 1.52296 5.4653 1.49999 5.46699V18.9514C1.68759 18.9356 1.91743 18.9158 2.18066 18.8996C2.93353 18.8533 3.96607 18.8162 5.08007 18.8547C6.19168 18.8931 7.39942 19.0072 8.49804 19.2678C9.51415 19.5088 10.4859 19.8872 11.1953 20.4894C11.7959 20.5058 12.4052 20.4955 12.7988 20.4875C13.5082 19.8571 14.4814 19.464 15.499 19.216C16.6001 18.9477 17.8101 18.8365 18.9228 18.8039C20.0383 18.7713 21.0717 18.8178 21.8252 18.8723C22.0858 18.8911 22.3133 18.9129 22.5 18.9309V5.45722C22.3609 5.4459 22.1927 5.43453 22 5.42109V4.92011Z" fill="#D9D9D9"/>
<path d="M17.9778 4.12418C19.0903 4.06238 20.1431 4.09331 20.9182 4.13981C21.3051 4.16303 21.622 4.19085 21.842 4.21207C21.8867 4.21638 21.9277 4.22005 21.9641 4.22379V18.2189C21.9479 18.2172 21.9308 18.2158 21.9133 18.214C21.7016 18.1923 21.3973 18.1644 21.0266 18.1408C20.2856 18.0935 19.275 18.0619 18.1994 18.1252C17.1254 18.1883 15.9763 18.347 14.9631 18.6847C13.9997 19.0059 13.1347 19.4985 12.5852 20.2502H12.4641V6.07926C12.9255 5.4294 13.7188 4.9714 14.6965 4.66032C15.6996 4.34118 16.8636 4.18609 17.9778 4.12418Z" stroke="#D9D9D9" stroke-width="0.5"/>
<path d="M3.039 4.1398C3.81403 4.0933 4.86691 4.06237 5.97943 4.12418C7.09359 4.18608 8.25756 4.34117 9.26068 4.66031C10.2384 4.97139 11.0316 5.4294 11.4931 6.07925V20.2502H11.372C10.8224 19.4984 9.95749 19.0059 8.99407 18.6847C7.98088 18.347 6.83174 18.1883 5.75775 18.1252C4.68221 18.0619 3.67158 18.0935 2.9306 18.1408C2.55989 18.1644 2.25562 18.1923 2.04388 18.214C2.0264 18.2158 2.00931 18.2172 1.9931 18.2189V4.22379C2.02949 4.22004 2.07053 4.21637 2.11517 4.21207C2.33516 4.19084 2.65213 4.16302 3.039 4.1398Z" stroke="#D9D9D9" stroke-width="0.5"/>
<path d="M12.5 6C14 2.5 21.5 2.99999 21.5 2.99999V17.5C21.5 17.5 14.5 17 12.5 20C12.5 18.5 12.5 7 12.5 6Z" fill="#D9D9D9"/>
<path d="M2.5 3C2.5 3 9.5 2.5 11.5 6C11.5 7 11.5 19 11.5 20C9.5 17 2.5 17.5 2.5 17.5V3Z" fill="#D9D9D9"/>
<rect x="11" y="20" width="2" height="1" fill="#D9D9D9"/>
</svg>
