<svg width="24" height="24" viewBox="0 0 24 24" fill="none" xmlns="http://www.w3.org/2000/svg">
<rect width="4.48103" height="1.09241" transform="matrix(0.820856 -0.571135 0.64786 0.761759 18.0121 4.60175)" fill="#D9D9D9"/>
<path d="M1.45979 16.1185L2.37936 15.4786L4.11257 14.935L4.8203 15.7671L4.14867 17.559L5.5 20.5C5.5 20.5 4.96232 21.0962 4.14867 21C3 17.559 1.45979 16.1185 1.45979 16.1185Z" fill="#D9D9D9"/>
<path d="M5.52803 16.5993L15.1835 9.88121L15.5374 10.2973L5.88189 17.0154L5.52803 16.5993Z" fill="#D9D9D9"/>
<path d="M5.98781 16.2794C6.90735 15.6396 7.82694 14.9998 8.28676 14.6798C10.5 20.5 10.9195 20.3602 10 21C9.08047 21.6398 8.11604 21.0728 7.5 21C6.88396 20.9272 7.65117 19.0958 5.98781 16.2794Z" fill="#D9D9D9"/>
<path d="M9.13647 17.4C9.13647 17.4 10.9756 16.1204 11.4354 15.8005C11.8952 15.4806 11.0454 12.7604 11.0454 12.7604L11.5052 12.4405C11.5052 12.4405 12.7088 15.5767 12.249 15.8967C11.7893 16.2166 9.49034 17.8161 9.49034 17.8161L9.13647 17.4Z" fill="#D9D9D9"/>
<path d="M12 12.5L14 11C14 11 16 14 21 15C19.5 17.5 21 15 19.5 17.5C14 16 12 12.5 12 12.5Z" fill="#D9D9D9"/>
<path d="M4.78378 13.1431L15.8188 5.46508L15.4652 5.04924L16.3846 4.4095L16.7383 4.82535L17.6578 4.18561L19.781 6.68215L5.06813 16.9191L2.94487 14.4225L3.86432 13.7828L3.51066 13.3669L4.43011 12.7272L4.78378 13.1431ZM5.84541 14.3913L6.19971 14.8079L13.5562 9.68945L13.2019 9.27287L5.84541 14.3913Z" fill="#D9D9D9"/>
<path d="M8 15L8.5 14.5L10.5 16H10L8 15Z" fill="#D9D9D9"/>
</svg>
