<svg width="24" height="24" viewBox="0 0 24 24" fill="none" xmlns="http://www.w3.org/2000/svg">
<path d="M0.430742 15.5082C0.413398 15.3921 0.403978 15.2766 0.400546 15.1621C1.06904 15.5103 2.21613 16.1009 2.23129 16.1087L3.4993 15.4493L3.51882 13.803C3.51882 13.803 3.51839 13.8034 1.66767 12.6743C2.02244 12.4308 2.43657 12.2617 2.89104 12.1938C4.48771 11.9551 5.97493 13.0522 6.21282 14.6441C6.45071 16.236 5.3492 17.7199 3.75252 17.9585C2.15585 18.1971 0.668634 17.1 0.430742 15.5082Z" fill="#D9D9D9"/>
<path fill-rule="evenodd" clip-rule="evenodd" d="M3.62378 15.299L5.72636 14.9848C5.72516 14.9942 5.68485 15.3192 5.80467 15.5089C11.8442 19.9639 12.9739 20.331 12.0792 21.5362C11.1846 22.7412 10.5411 22.0336 4.46269 17.3167C4.19986 17.2798 3.93705 17.3953 3.93705 17.3953L3.62378 15.299ZM10.6476 20.9465C10.691 21.2358 10.9614 21.4354 11.2516 21.392C11.5418 21.3486 11.742 21.0787 11.6989 20.7894C11.6557 20.4999 11.3853 20.3005 11.095 20.3439C10.8047 20.3872 10.6044 20.657 10.6476 20.9465Z" fill="#D9D9D9"/>
<path d="M19.0484 10.5335C18.9551 11.4156 18.6329 12.2617 18.1079 12.9844C17.5828 13.7071 16.8773 14.2749 16.067 14.6362L15.3966 12.5714C15.7777 12.3644 16.1114 12.0762 16.369 11.7217C16.6267 11.367 16.7981 10.9602 16.8772 10.5335H19.0484Z" fill="#D9D9D9"/>
<path d="M18.2649 13.6458C18.2412 13.6735 18.2161 13.6998 18.192 13.7269C18.2193 13.6962 18.2472 13.666 18.2738 13.6347L18.2649 13.6458Z" fill="#D9D9D9"/>
<path d="M16.3951 10C16.395 10.5056 16.2353 10.9987 15.9382 11.4077L15.8207 11.5565C15.5347 11.8911 15.1604 12.1415 14.7396 12.2783L14.5201 11.6004C14.858 11.4906 15.1527 11.277 15.3616 10.9896C15.5705 10.702 15.683 10.3554 15.683 10H16.3951Z" fill="#D9D9D9"/>
<path d="M14.7396 12.2783C14.2589 12.4343 13.7411 12.4343 13.2604 12.2783C12.8395 12.1415 12.4654 11.8905 12.1793 11.5558L12.0625 11.4077L12.6384 10.9896C12.8473 11.277 13.142 11.4906 13.4799 11.6004C13.818 11.7103 14.182 11.7103 14.5201 11.6004L14.7396 12.2783Z" fill="#D9D9D9"/>
<path d="M11.9851 12.1228C12.3 12.4216 12.6781 12.6502 13.0952 12.7857C13.512 12.9211 13.9517 12.9576 14.3817 12.901L15.0528 14.9658C14.1852 15.1497 13.281 15.1048 12.4315 14.8289C11.5817 14.5527 10.8232 14.0573 10.2292 13.3981L11.9851 12.1228Z" fill="#D9D9D9"/>
<path d="M12.6384 9.01042C12.4295 9.29797 12.317 9.64456 12.317 10C12.317 10.3554 12.4295 10.702 12.6384 10.9896L9.46131 13.2976L12.0625 11.4077C11.7654 10.9987 11.605 10.5056 11.6049 10C11.605 9.49432 11.7653 9.00138 12.0625 8.59226L12.6384 9.01042Z" fill="#D9D9D9"/>
<path d="M11.3586 8.74033C11.1719 9.13194 11.0722 9.56167 11.0722 10C11.0722 10.4382 11.172 10.8681 11.3586 11.2597L9.60268 12.5357C9.15965 11.7673 8.92341 10.8932 8.92336 10C8.92341 9.10671 9.15953 8.23276 9.60268 7.46429L11.3586 8.74033Z" fill="#D9D9D9"/>
<path d="M8.49777 11.0967C8.52639 11.2402 8.56077 11.3824 8.60045 11.5231C8.58061 11.4527 8.56173 11.3821 8.54464 11.311L8.49777 11.0967Z" fill="#D9D9D9"/>
<path d="M13.2604 7.72247C13.7413 7.5663 14.2594 7.56623 14.7403 7.72247L14.5201 8.39955C14.182 8.28972 13.818 8.28972 13.4799 8.39955C13.142 8.50937 12.8473 8.72298 12.6384 9.01042L12.0625 8.59226C12.3226 8.23431 12.6761 7.95654 13.0826 7.78795L13.2604 7.72247Z" fill="#D9D9D9"/>
<path d="M12.4315 5.17188C13.281 4.89591 14.1851 4.85031 15.0528 5.03423L14.3817 7.09896C13.9516 7.04242 13.512 7.07963 13.0952 7.21503C12.6783 7.35051 12.3006 7.57856 11.9859 7.87723L10.2292 6.60119C10.8232 5.94219 11.5819 5.44795 12.4315 5.17188Z" fill="#D9D9D9"/>
<path d="M14.7403 7.72247C15.2212 7.8788 15.641 8.18316 15.9382 8.59226L16.0432 8.75C16.2727 9.12515 16.395 9.55777 16.3951 10H15.683C15.683 9.64456 15.5705 9.29797 15.3616 9.01042C15.1527 8.72298 14.858 8.50937 14.5201 8.39955L14.7403 7.72247Z" fill="#D9D9D9"/>
<path d="M16.067 5.36384C16.8773 5.72511 17.5827 6.29358 18.1079 7.01637C18.6328 7.73907 18.9552 8.58515 19.0484 9.46726H16.8772C16.7982 9.04056 16.6267 8.63374 16.369 8.27902C16.1113 7.92435 15.7779 7.63489 15.3966 7.42783L16.067 5.36384Z" fill="#D9D9D9"/>
<path fill-rule="evenodd" clip-rule="evenodd" d="M14 2.20536C14.1633 2.20536 14.3266 2.21073 14.4896 2.22098L14.5022 2.01711C15.7711 2.09573 16.9587 2.47085 17.9993 3.07292L17.8973 3.25C17.9679 3.29078 18.0378 3.33278 18.1071 3.37574L18.3132 3.50818L18.4271 3.33631C19.4518 4.01843 20.308 4.93156 20.9263 6L20.75 6.10268C20.8316 6.24402 20.9088 6.38804 20.9814 6.53423L21.1652 6.44271C21.6983 7.51445 22 8.72174 22 10H21.7946L21.7902 10.2448C21.7876 10.3264 21.7841 10.4081 21.779 10.4896L21.9821 10.5022C21.9035 11.7712 21.5285 12.9586 20.9263 13.9993L20.75 13.8973C20.6684 14.0387 20.5821 14.1773 20.4918 14.3132L20.6629 14.4271C19.9807 15.4518 19.0678 16.308 17.9993 16.9263L17.8973 16.75C17.756 16.8316 17.612 16.9088 17.4658 16.9814L17.5565 17.1652C16.485 17.6981 15.278 18 14 18V17.7946C13.8367 17.7946 13.6734 17.7893 13.5104 17.779L13.497 17.9821C12.2281 17.9034 11.0406 17.5286 10 16.9263L10.1027 16.75C9.96135 16.6684 9.82269 16.5821 9.68676 16.4918L9.57217 16.6629C8.54758 15.9807 7.69115 15.0678 7.07292 13.9993L7.25 13.8973C7.1684 13.756 7.09117 13.612 7.0186 13.4658L6.83408 13.5565C6.30124 12.485 6 11.2779 6 10H6.20536C6.20536 9.83674 6.21073 9.67335 6.22098 9.51042L6.01711 9.49702C6.09584 8.2282 6.47077 7.04052 7.07292 6L7.25 6.10268C7.3316 5.96135 7.41787 5.82269 7.50818 5.68676L7.33631 5.57217C8.01847 4.54761 8.9316 3.69119 10 3.07292L10.1027 3.25C10.244 3.1684 10.388 3.09117 10.5342 3.0186L10.4427 2.83408C11.5144 2.30106 12.7219 2 14 2V2.20536ZM14 4.28571C10.8441 4.28571 8.28571 6.84409 8.28571 10C8.28571 13.1559 10.8441 15.7143 14 15.7143C17.1559 15.7143 19.7143 13.1559 19.7143 10C19.7143 6.84409 17.1559 4.28571 14 4.28571Z" fill="#D9D9D9"/>
</svg>
