<svg width="24" height="24" viewBox="0 0 24 24" fill="none" xmlns="http://www.w3.org/2000/svg">
<path d="M13.3328 21.6001H8.74982V18.3999H6.24982V21.6001H1.66681V14.3999H13.3328V21.6001ZM3.49982 17.4995V19.9995H5.16681V17.4995H3.49982Z" fill="#D9D9D9"/>
<path d="M0.833344 14H14.1667V14.8H0.833344V14Z" fill="#D9D9D9"/>
<path d="M0 21.5H24V22H0V21.5Z" fill="#D9D9D9"/>
<path d="M15 5.22852C15.8284 5.22852 16.5 6.01911 16.5 6.99414C16.4999 7.69223 16.154 8.29275 15.6543 8.5791L21 22H20.25L20.0361 21.4639L15 19.2402L13.833 19.7549V19.3145L14.5 19.0205L13.833 18.7256V18.2842L15 18.7998L18.3066 17.3408L14.999 15.5088L13.833 16.1543V15.7139L14.5801 15.2998H14.666V14.8818L14.999 15.0674L17.0391 13.9385L17.0352 13.9287L15 12.7305L13.6924 13.5H12.3848L14.3447 8.5791C13.8456 8.29253 13.5001 7.69177 13.5 6.99414C13.5 6.01918 14.1717 5.22862 15 5.22852ZM10 19.6006H10.7051L10.1758 20.9287L13.333 19.5352V19.9756L9.96289 21.4639L9.9082 21.6006H9.15918L10 19.4883V19.6006ZM15.5 19.0195L19.8232 20.9287L18.5293 17.6826L15.5 19.0195ZM10.9043 19.1006H10.5V18.5H11.1436L10.9043 19.1006ZM11.8047 16.8379L13.333 15.9902V16.4307L11.6924 17.3398L13.333 18.0635V18.5049L11.4688 17.6826L11.3428 18H10.5928L11.668 15.2998H12.417L11.8047 16.8379ZM15.3975 15.2881L18.1934 16.8369L17.1826 14.2998L15.3975 15.2881ZM14.166 14.6055V14.7998H13.833V14.4209L14.166 14.6055ZM12.6162 14.7998H11.8672L12.0264 14.4004H12.7754L12.6162 14.7998ZM13.333 14.5859L12.9971 14.4004H13.333V14.5859ZM13.1924 13.3535L14.625 12.5098L13.7363 11.9873L13.1924 13.3535ZM15.375 12.5098L16.8057 13.3525L16.2617 11.9883L15.375 12.5098ZM13.8789 11.6299L15 12.2891L16.1191 11.6299L15 8.81836L13.8789 11.6299ZM11.0703 2.36914C10.0789 3.54909 9.46205 5.17734 9.46191 6.99316C9.46191 8.80926 10.0798 10.4372 11.0713 11.6172L10.7578 11.9854C9.67237 10.7074 9 8.94289 9 6.99316C9.00013 5.0434 9.67121 3.27779 10.7568 2L11.0703 2.36914ZM19.2412 2.00098C20.327 3.27889 20.9999 5.04322 21 6.99316L20.9922 7.35645C20.9145 9.16189 20.259 10.7874 19.2412 11.9854L18.9277 11.6172C19.9195 10.4371 20.5381 8.80951 20.5381 6.99316C20.538 5.17709 19.9203 3.54913 18.9287 2.36914L19.2412 2.00098ZM12.1318 3.61816C11.4119 4.47864 10.962 5.66494 10.9619 6.99316C10.9619 8.32138 11.412 9.50747 12.1318 10.3682L11.8184 10.7373C11.0043 9.77875 10.5 8.45541 10.5 6.99316C10.5001 5.53095 11.0032 4.20635 11.8174 3.24805L12.1318 3.61816ZM18.1807 3.24902C18.9951 4.20739 19.4999 5.53064 19.5 6.99316L19.4941 7.2666C19.4357 8.62033 18.9438 9.83886 18.1807 10.7373L17.8672 10.3682C18.5873 9.50743 19.0391 8.32164 19.0391 6.99316C19.0389 5.66436 18.5877 4.47775 17.8672 3.61719L18.1807 3.24902ZM13.1934 4.86719C12.7446 5.4084 12.462 6.15334 12.4619 6.99414C12.4621 7.83445 12.7449 8.57822 13.1934 9.11914L12.8779 9.48926C12.3695 8.89035 12.0429 8.07773 12.0039 7.17578L12 6.99414C12.0001 6.01917 12.336 5.13608 12.8789 4.49707L13.1934 4.86719ZM17.1191 4.49902C17.662 5.13796 17.9999 6.01918 18 6.99414L17.9961 7.17578C17.9571 8.07807 17.6279 8.8885 17.1191 9.4873L16.8057 9.11914C17.2544 8.57817 17.5379 7.83472 17.5381 6.99414C17.538 6.15309 17.2547 5.40844 16.8057 4.86719L17.1191 4.49902Z" fill="#D9D9D9"/>
</svg>
