<svg width="24" height="24" viewBox="0 0 24 24" fill="none" xmlns="http://www.w3.org/2000/svg">
<path d="M0 22.5H24V23H0V22.5Z" fill="#D9D9D9"/>
<path d="M10 9.85449L7.62695 12.5127L7.30176 12.8779L7.65918 13.2119L8.23535 13.75L8.37988 13.8848H8.6543V22H1V7.5H10V9.85449ZM10 11.6289L8.77441 13.0596L8.6543 13.2002V13.3848H8.57715L8 12.8457L10 10.6055V11.6289ZM5.5 2C10 2 10 6 10 6V7H1V6C1 6 1 2 5.5 2Z" fill="#D9D9D9"/>
<path d="M19.5381 10.6924L21.8457 13.3848V22H19V16H12V22H9.1543V13.3848L11.4619 10.6924L15.5 9.07715L19.5381 10.6924ZM13.7695 13.3848H17.2305V11.2305H13.7695V13.3848Z" fill="#D9D9D9"/>
<path fill-rule="evenodd" clip-rule="evenodd" d="M20.1152 9.61523L23 12.8457L22.4229 13.3848H22.3467V13.2002L22.2266 13.0596L19.9189 10.3672L19.8389 10.2734L19.7246 10.2285L15.6865 8.61328L15.5 8.53906L11.2764 10.2285L11.1621 10.2734L11.082 10.3672L8.77441 13.0596L8.6543 13.2002V13.3848H8.57715L8 12.8457L10.8848 9.61523L15.5 8L20.1152 9.61523ZM19.5391 10.6924L21.8467 13.3848H21.8457L19.5381 10.6924L15.5 9.07715L19.5391 10.6924Z" fill="#D9D9D9"/>
<path d="M15.5 20.5H16.5V20H17V20.5H18V20H18.5V20.5H19V21H18.5V22H18V21H17V22H16.5V21H15.5V20.5Z" fill="#D9D9D9"/>
<path d="M15.5 20.5H16.5V20H17V20.5H18V20H18.5V20.5H19V21H18.5V22H18V21H17V22H16.5V21H15.5V20.5Z" fill="#D9D9D9"/>
<path d="M20 20.5H21V20H21.5V20.5H22.5V20H23V20.5H23.5V21H23V22H22.5V21H21.5V22H21V21H20V20.5Z" fill="#D9D9D9"/>
</svg>
