<svg width="24" height="24" viewBox="0 0 24 24" fill="none" xmlns="http://www.w3.org/2000/svg">
<path d="M16.5 2C16.7215 2 16.9397 2.01459 17.1543 2.04004C16.318 3.1872 14.8957 5.15756 14.877 5.18359L15.7539 7.72656L18.8213 8.2207C18.8213 8.2207 18.8207 8.2198 21.4443 5.08984C21.7998 5.81773 22 6.6354 22 7.5C22 10.5376 19.5376 13 16.5 13C13.4624 13 11 10.5376 11 7.5C11 4.46243 13.4624 2 16.5 2Z" fill="#D9D9D9"/>
<path d="M15.9996 8V12C15.9824 11.9952 15.3871 11.8298 14.9996 12C4.99977 21.9998 3.99954 24 1.99957 22C-7.59363e-05 20.0002 1.50016 18.9994 11.9996 9C12.1419 8.52118 11.9996 8 11.9996 8H15.9996ZM3.49957 19.5C2.94748 19.5002 2.49957 19.9479 2.49957 20.5C2.49957 21.0521 2.94748 21.4998 3.49957 21.5C4.05185 21.5 4.49956 21.0523 4.49957 20.5C4.49957 19.9477 4.05185 19.5 3.49957 19.5Z" fill="#D9D9D9"/>
</svg>
