<svg width="24" height="24" viewBox="0 0 24 24" fill="none" xmlns="http://www.w3.org/2000/svg">
<path d="M22 17C22 17.6566 21.7413 18.3068 21.2388 18.9134C20.7362 19.52 19.9997 20.0712 19.0711 20.5355C18.1425 20.9998 17.0401 21.3681 15.8268 21.6194C14.6136 21.8707 13.3132 22 12 22C10.6868 22 9.38642 21.8707 8.17317 21.6194C6.95991 21.3681 5.85752 20.9998 4.92893 20.5355C4.00035 20.0712 3.26375 19.52 2.7612 18.9134C2.25866 18.3068 2 17.6566 2 17L12 17H22Z" fill="currentColor"/>
<rect x="11" y="14" width="1" height="4" fill="currentColor"/>
<path d="M11.5 15.5V3.56152L20.0283 15.5H11.5Z" stroke="currentColor"/>
<path d="M3 16H10V4L3 16Z" fill="currentColor"/>
</svg>
