<svg width="24" height="24" viewBox="0 0 24 24" fill="none" xmlns="http://www.w3.org/2000/svg">
<rect x="11" y="2" width="1" height="17" fill="#D9D9D9"/>
<path d="M12.5 2C12.5 2 14.7453 2.33175 16 3C17.1035 3.58775 17.3268 4.56777 18.5 5C19.7826 5.47252 22 5 22 5C22 5 20.5958 8.30141 18.5 9C17 9.5 15.8665 8.10831 15 8C13.4379 7.80474 12.5 10 12.5 10V2Z" fill="#D9D9D9"/>
<path d="M5 20C5 19 7.23333 18 10.5 18C10.5 18.5 10.5 19 10.5 19.5C10.9667 19.5 12.0333 19.5 12.5 19.5C12.5 19 12.5 18.5 12.5 18C16.5 18 19 19 19 20C19 21 17 22 12 22C7 22 5 21 5 20Z" fill="#D9D9D9"/>
</svg>
