<svg width="24" height="24" viewBox="0 0 24 24" fill="none" xmlns="http://www.w3.org/2000/svg">
<path d="M3 8.1875C3.66571 8.21539 4.09854 9.13929 4.36523 9.86035C4.63915 10.629 4.80122 11.4427 4.90137 12.2617C4.95084 12.6721 4.98331 13.0854 5 13.5C4.98331 13.9146 4.95084 14.3279 4.90137 14.7383C4.80122 15.5573 4.63915 16.371 4.36523 17.1396C4.09854 17.8607 3.66571 18.7846 3 18.8125C2.17292 18.6803 1.80413 17.4448 1.57031 16.5254C1.34118 15.5415 1.25144 14.5187 1.25 13.5C1.25144 12.4813 1.34118 11.4585 1.57031 10.4746C1.80413 9.55515 2.17292 8.31974 3 8.1875ZM3 9C2.44772 9 1.5 11.0147 1.5 13.5C1.5 15.9853 2.44772 18 3 18C3.55228 18 4.5 15.9853 4.5 13.5C4.47832 13.829 4.44163 14.1561 4.38965 14.4795C4.2852 15.1256 4.1231 15.7604 3.89355 16.3623C3.77814 16.6626 3.64645 16.9548 3.48633 17.2236C3.40642 17.3569 3.3197 17.484 3.22461 17.5898C3.13792 17.6961 2.99504 17.7753 3 17.7559C2.18341 17.0005 1.82687 14.998 1.8252 13.5C1.82687 12.002 2.18341 9.99954 3 9.24414C2.99504 9.2247 3.13792 9.30391 3.22461 9.41016C3.3197 9.51598 3.40641 9.64308 3.48633 9.77637C3.64645 10.0452 3.77814 10.3374 3.89355 10.6377C4.1231 11.2396 4.2852 11.8744 4.38965 12.5205C4.44163 12.8439 4.47832 13.171 4.5 13.5C4.5 11.0147 3.55228 9 3 9ZM3 11C2.63181 11 2.5 12.1193 2.5 13.5C2.51334 13.3231 2.52795 13.1459 2.54492 12.9697C2.57924 12.6178 2.62065 12.2663 2.68555 11.9248C2.71869 11.7534 2.75772 11.5847 2.81348 11.4287C2.85848 11.2778 2.98243 11.1179 3 11.1504C3.02611 11.128 3.14729 11.3686 3.17676 11.5596C3.21896 11.7623 3.24283 11.978 3.25977 12.1924C3.29263 12.6239 3.29937 13.0614 3.2998 13.5C3.29937 13.9386 3.29263 14.3761 3.25977 14.8076C3.24283 15.022 3.21896 15.2377 3.17676 15.4404C3.14729 15.6314 3.02611 15.872 3 15.8496C2.98243 15.8821 2.85848 15.7222 2.81348 15.5713C2.75772 15.4153 2.71869 15.2466 2.68555 15.0752C2.62065 14.7337 2.57924 14.3822 2.54492 14.0303C2.52795 13.8541 2.51334 13.6769 2.5 13.5C2.5 14.8807 2.63181 16 3 16C3.36819 16 3.5 14.8807 3.5 13.5C3.5 12.1193 3.36819 11 3 11Z" fill="#D9D9D9"/>
<path d="M21 8C21.6228 8 22.1781 8.78324 22.5449 10.0107C22.5299 10.0111 22.515 10.0123 22.5 10.0127C19.5 10.0877 16.5 10.1623 13.5 10.2373C13.3333 10.2415 13.1667 10.2458 13 10.25C13.1667 10.2542 13.3333 10.2585 13.5 10.2627C16.5 10.3377 19.5 10.4123 22.5 10.4873C22.5576 10.4887 22.6152 10.4897 22.6729 10.4912C22.8787 11.3559 23 12.3893 23 13.5C23 14.4428 22.9127 15.3299 22.7607 16.1055C21.0072 16.1492 19.2536 16.1935 17.5 16.2373C17.3333 16.2415 17.1667 16.2458 17 16.25C17.1667 16.2542 17.3333 16.2585 17.5 16.2627C19.2327 16.306 20.9655 16.3484 22.6982 16.3916C22.5532 17.0355 22.3626 17.5907 22.1367 18.0215C19.2578 18.0934 16.3789 18.1653 13.5 18.2373C13.3333 18.2415 13.1667 18.2458 13 18.25C13.1667 18.2542 13.3333 18.2585 13.5 18.2627C16.2851 18.3323 19.0703 18.4011 21.8555 18.4707C21.5958 18.8096 21.3065 19 21 19H3C3.78366 19 4.45907 17.76 4.78711 15.9551C7.35807 15.8909 9.92904 15.827 12.5 15.7627C12.6667 15.7585 12.8333 15.7542 13 15.75C12.8333 15.7458 12.6667 15.7415 12.5 15.7373C9.9515 15.6736 7.403 15.6095 4.85449 15.5459C4.94674 14.9134 5 14.2232 5 13.5C5 12.5616 4.91339 11.6783 4.7627 10.9053C6.67513 10.8576 8.58757 10.8105 10.5 10.7627C10.6667 10.7585 10.8333 10.7542 11 10.75C10.8333 10.7458 10.6667 10.7415 10.5 10.7373C8.5651 10.6889 6.63021 10.6401 4.69531 10.5918C4.34205 9.03579 3.71619 8 3 8H21ZM13 13C11.5 13 9.99999 13.0401 8.5 13.1211C8.33333 13.1301 8.16667 13.1404 8 13.1504C8.16666 13.1604 8.33334 13.1697 8.5 13.1787C10 13.2597 11.5 13.2998 13 13.2998C14.5 13.2998 16 13.2597 17.5 13.1787C17.6667 13.1697 17.8333 13.1604 18 13.1504C17.8333 13.1404 17.6667 13.1301 17.5 13.1211C16 13.0401 14.5 13 13 13Z" fill="#D9D9D9"/>
<path d="M17 7.00002C17.4686 6.37518 18.5 6.5 19 7.00002C18 9.00002 18 9.00002 18 9.00002H15.5C15.5 9.00002 15.5 9.00002 17 7.00002Z" fill="#D9D9D9"/>
</svg>
