<svg width="24" height="24" viewBox="0 0 24 24" fill="none" xmlns="http://www.w3.org/2000/svg">
<g clip-path="url(#clip0_70_348)">
<path d="M10.6141 8.3318L20.8424 1L22 2.32205L11.7718 9.65385L10.6141 8.3318Z" fill="#D9D9D9"/>
<path d="M12.1576 10.0945L14.1059 8.69799L14.8776 9.57936L12.9294 10.9759L12.1576 10.0945Z" fill="#D9D9D9"/>
<path d="M17.5153 6.25406L19.4635 4.85753L20.2353 5.73889L18.287 7.13542L17.5153 6.25406Z" fill="#D9D9D9"/>
<path d="M13.8018 11.0673L3.08672 18.748L0.772003 16.1046L3.89632 12.43L10.7151 7.54215L13.8018 11.0673ZM4.4658 14.8906L4.8518 15.3314L10.6967 11.1417L10.3107 10.7009L4.4658 14.8906ZM4.56714 14.1005L10.4112 9.91132L10.0259 9.47123L4.18178 13.6604L4.56714 14.1005Z" fill="#D9D9D9"/>
<path d="M3.08702 18.7484L5.52232 17.0027L8.02109 21.6671C8.02109 21.6671 7.33167 23.5959 5.58579 23.4128C3.83992 23.2297 3.08702 18.7484 3.08702 18.7484Z" fill="#D9D9D9"/>
<path d="M6.19289 18.6739C6.19289 18.6739 8.14113 17.2774 8.62818 16.9282C9.11524 16.5791 8.15998 13.6774 8.15998 13.6774L8.64704 13.3283C8.64704 13.3283 9.98818 16.6706 9.50112 17.0198C9.01406 17.3689 6.57876 19.1146 6.57876 19.1146L6.19289 18.6739Z" fill="#D9D9D9"/>
<path d="M18.9953 1.60673L19.4824 1.25759L20.2541 2.13896L19.7671 2.48809L18.9953 1.60673Z" fill="#D9D9D9"/>
<path d="M19.1599 7.22671L14.7763 10.369L13.2329 8.60644L17.6166 5.46415L19.1599 7.22671ZM14.8776 9.57884L15.3642 9.23008L14.5928 8.34916L14.1063 8.69793L14.8776 9.57884ZM15.8515 8.88075L16.3388 8.53141L15.5675 7.6505L15.0801 7.99983L15.8515 8.88075ZM16.8254 8.18265L17.3127 7.83332L16.5414 6.9524L16.054 7.30174L16.8254 8.18265ZM17.0287 6.60307L17.8001 7.48398L18.2866 7.13522L17.5152 6.25431L17.0287 6.60307Z" fill="#D9D9D9"/>
<path d="M5.13644 16.562L5.6235 16.2129L7.26819 17.1858L6.78113 17.5349L5.13644 16.562Z" fill="#D9D9D9"/>
</g>
<defs>
<clipPath id="clip0_70_348">
<rect width="24" height="24" fill="white"/>
</clipPath>
</defs>
</svg>
