<svg width="24" height="24" viewBox="0 0 24 24" fill="none" xmlns="http://www.w3.org/2000/svg">
<rect y="22" width="24" height="1" fill="#D9D9D9"/>
<path d="M11.5836 8.17029H12.4169L6.16689 23H5.33356L11.5836 8.17029Z" fill="#D9D9D9"/>
<path d="M12.4183 8.17029H11.5849L17.835 23H18.6683L12.4183 8.17029Z" fill="#D9D9D9"/>
<path d="M7.83356 18.3657V17.9023L17.8336 22.0731V22.5366L7.83356 18.3657Z" fill="#D9D9D9"/>
<path d="M9.08383 14.6583V14.1949L16.1672 17.9023V18.3657L9.08383 14.6583Z" fill="#D9D9D9"/>
<path d="M10.3341 12.3411V11.8777L14.5008 14.1949V14.6583L10.3341 12.3411Z" fill="#D9D9D9"/>
<path d="M13.6678 12.3411V11.8777L9.50113 14.1949V14.6583L13.6678 12.3411Z" fill="#D9D9D9"/>
<path d="M14.9179 14.6583V14.1949L7.83458 17.9023V18.3657L14.9179 14.6583Z" fill="#D9D9D9"/>
<path d="M16.1681 18.3657V17.9023L6.16802 22.0731V22.5366L16.1681 18.3657Z" fill="#D9D9D9"/>
<line x1="9.50052" y1="14.4083" x2="14.5005" y2="14.4083" stroke="#D9D9D9" stroke-width="0.5"/>
<line x1="7.83356" y1="18.1157" x2="16.1669" y2="18.1157" stroke="#D9D9D9" stroke-width="0.5"/>
<path d="M13.5 7.41465C13.5 8.24307 12.8284 8.91465 12 8.91465C11.1716 8.91465 10.5 8.24307 10.5 7.41465C10.5 6.58622 11.1716 5.91465 12 5.91465C12.8284 5.91465 13.5 6.58622 13.5 7.41465Z" fill="#D9D9D9"/>
<path d="M9.98056 4.99717C9.48241 5.56806 9.16718 6.35309 9.16708 7.24327C9.16714 8.13315 9.48273 8.91737 9.98056 9.48838L9.64365 9.86338C9.04084 9.19244 8.66714 8.2666 8.66708 7.24327C8.66718 6.21966 9.04052 5.29299 9.64365 4.62217L9.98056 4.99717ZM14.3565 4.62217C14.96 5.29302 15.334 6.21949 15.3341 7.24327L15.3292 7.43467C15.2859 8.38203 14.9217 9.23451 14.3565 9.86338L14.0186 9.48838C14.517 8.9173 14.834 8.13358 14.8341 7.24327C14.834 6.35267 14.5174 5.56813 14.0186 4.99717L14.3565 4.62217Z" fill="#D9D9D9"/>
<path d="M8.80139 3.68563C8.0016 4.59214 7.50061 5.84159 7.50061 7.24423C7.5008 8.64641 8.00188 9.8947 8.80139 10.8009L8.46545 11.1739C7.61777 10.2307 7.07239 8.95147 7.00745 7.53036L7.00061 7.24423C7.00061 5.70845 7.55953 4.31711 8.46448 3.31063L8.80139 3.68563ZM15.5348 3.31063C16.4401 4.31717 17.0006 5.7081 17.0006 7.24423L16.9938 7.53036C16.9288 8.95182 16.3818 10.2307 15.5338 11.1739L15.1989 10.8009C15.9985 9.89469 16.5004 8.64651 16.5006 7.24423C16.5006 5.84124 15.998 4.59219 15.1979 3.68563L15.5348 3.31063Z" fill="#D9D9D9"/>
<path d="M7.62262 2.375C6.52147 3.61677 5.83367 5.32885 5.83356 7.24316C5.8336 9.15735 6.52165 10.8695 7.62262 12.1113L7.28571 12.4854C6.1553 11.2275 5.42882 9.52002 5.34235 7.625L5.33356 7.24316C5.33367 5.19583 6.07932 3.34176 7.28571 2L7.62262 2.375ZM16.7125 2.00098C17.919 3.34276 18.6665 5.19551 18.6666 7.24316L18.6578 7.625C18.5713 9.52027 17.843 11.2265 16.7125 12.4844L16.3765 12.1113C17.4777 10.8694 18.1665 9.15769 18.1666 7.24316C18.1665 5.32851 17.4778 3.61682 16.3765 2.375L16.7125 2.00098Z" fill="#D9D9D9"/>
</svg>
