<svg width="24" height="24" viewBox="0 0 24 24" fill="none" xmlns="http://www.w3.org/2000/svg">
<path d="M19.5 18.5C20.6046 18.5 21.5 19.3954 21.5 20.5C21.5 21.6046 20.6046 22.5 19.5 22.5C18.3954 22.5 17.5 21.6046 17.5 20.5C17.5 19.3954 18.3954 18.5 19.5 18.5ZM19.5 19.8115C19.1318 19.8115 18.833 20.1103 18.833 20.4785C18.8332 20.8465 19.1319 21.1445 19.5 21.1445C19.8681 21.1445 20.1668 20.8465 20.167 20.4785C20.167 20.1103 19.8682 19.8115 19.5 19.8115Z" fill="#D9D9D9"/>
<path d="M16.6219 7H20.5L18 10H19.1219L15 14L16.6219 10H15.6219L16.6219 7Z" fill="#D9D9D9"/>
<path d="M18 2H20V2.5H21V3.5H20V4H19V5.5H18V2Z" fill="#D9D9D9"/>
<path d="M16 3H17V5.5H16V3Z" fill="#D9D9D9"/>
<path d="M22 5C22.5523 5 23 5.44772 23 6V20C23 20.5523 22.5523 21 22 21H21.9502C21.983 20.8385 22 20.6712 22 20.5C22 19.1193 20.8807 18 19.5 18C18.1193 18 17 19.1193 17 20.5C17 20.6712 17.017 20.8385 17.0498 21H8.91406C8.6489 21 8.39453 21.1055 8.20703 21.293L7.29297 22.207C7.10547 22.3945 6.8511 22.5 6.58594 22.5H5.75C5.36183 22.5 5.04253 22.2051 5.00391 21.8271L4.99609 21.6729C4.95747 21.2949 4.63817 21 4.25 21H4C3.44772 21 3 20.5523 3 20V6C3 5.44772 3.44772 5 4 5H22ZM15 6C14.4477 6 14 6.44772 14 7V14C14 14.5523 14.4477 15 15 15H20C20.5523 15 21 14.5523 21 14V7C21 6.44772 20.5523 6 20 6H15ZM5 14H6V7H5V14ZM7 14H8V7H7V14ZM9 14H10V7H9V14ZM11 14H12V7H11V14Z" fill="#D9D9D9"/>
<rect x="1.5" y="7.5" width="2" height="11" rx="0.5" stroke="#D9D9D9"/>
</svg>
