<svg width="24" height="24" viewBox="0 0 24 24" fill="none" xmlns="http://www.w3.org/2000/svg">
<path d="M13.0117 9.07715C13.754 10.1305 14.4064 11.4162 14.9219 12.6055C15.029 12.8526 15.1278 13.0934 15.2207 13.3232L14.1494 14.6631L14.5537 14.9736L15.4355 13.8682C15.5558 14.1816 15.6599 14.4649 15.7451 14.707C15.8396 14.9757 15.911 15.1928 15.959 15.3408C15.9829 15.4146 16.001 15.4712 16.0127 15.5088C16.0186 15.5276 16.0236 15.5419 16.0264 15.5508C16.0276 15.5548 16.0287 15.5577 16.0293 15.5596V15.5615L17.9854 15.3193V15.3184L17.9863 15.3164C17.9864 15.3151 17.9862 15.3135 17.9863 15.3115C17.9865 15.3071 17.987 15.3005 17.9873 15.293C17.9879 15.2778 17.9884 15.2565 17.9893 15.2295C17.991 15.1751 17.9927 15.0971 17.9941 14.998C17.997 14.8001 17.9974 14.5172 17.9883 14.1699C17.9784 13.7927 17.9554 13.337 17.9131 12.8291L18.0723 12.7803L17.9883 12.5449L17.9023 12.3105L17.8652 12.3213C17.836 12.0446 17.8021 11.7561 17.7588 11.46C17.716 11.1674 17.6615 10.8633 17.6006 10.5508L18.3418 10.9941L18.5439 12.3652L19.2578 12.2871L19.7959 14.9277L22.0859 15.7793L22.8359 19.3633L21.624 20.1211H15.1865L14.7959 20.5H6.55566L6 17.5059L6.25391 16.1357C7.29465 15.0232 8.22381 14.0378 9.05469 13.1641L9.33301 13.0146H9.75684L9.68848 13.0557L10.9004 14.9492L10.9619 15.0439L11.0781 15.0596L13.8252 15.4268L14.9785 16.5098L15.3408 16.1572L14.1279 15.0205L14.0693 14.9658L13.9883 14.9551L11.2764 14.5908L10.126 12.7939L9.96875 12.8867L10.3252 11.8359C11.4112 10.7055 12.2914 9.80245 13.0117 9.07715ZM12.5938 18.0186L12.5625 18.0381L12.5381 18.0654L10.9229 19.96L11.3164 20.2832L12.9082 18.417L15.3018 16.9219L15.1592 16.7119L15.0176 16.5029L12.5938 18.0186ZM15.5723 16.959L18.2734 16.958L19.4062 18.374L19.4385 18.415L19.4834 18.4395L21.5029 19.5752L21.7441 19.1514L19.7676 18.0381L18.5898 16.5654L18.5098 16.4658H15.5547L15.5723 16.959ZM16.9336 13.1348C17.0257 14.3818 16.9882 15.2542 16.9873 15.2725C16.9839 15.2612 16.7397 14.4611 16.2998 13.333L16.9336 13.1348ZM16.3623 9.62109C16.6455 10.6661 16.8017 11.7181 16.8896 12.626L16.1143 12.8682C15.5641 11.5175 14.7751 9.83301 13.8027 8.46387L15.0088 8L16.3623 9.62109ZM11.2354 9.45215C11.1845 9.50418 11.1331 9.55696 11.0811 9.61035L11.1201 9.49707L11.2354 9.45215Z" fill="#D9D9D9"/>
<path d="M4.73132 3.00917C4.73132 3.00917 11.3169 2.69857 14.3082 5.69183C17.2995 8.68509 16.9868 15.2727 16.9868 15.2727C16.9868 15.2727 15.331 9.78221 12.7752 7.22477C10.2195 4.66733 4.73132 3.00917 4.73132 3.00917Z" fill="#D9D9D9"/>
<path d="M2.07774 16.762C12.4565 7.15758 13.9942 5.2367 14.763 4.46834C15.1474 4.08416 15.9157 4.85252 15.5313 5.23669C14.7625 6.00504 12.8406 7.54176 3.2302 17.9145C2.84579 18.3294 1.69335 17.1177 2.07774 16.762Z" fill="#D9D9D9"/>
<path d="M13.1824 5.18182C13.6342 4.72995 14.3666 4.72995 14.8182 5.18182C15.2697 5.63369 15.2695 6.36631 14.8176 6.81818L13.9995 7.63636C13.5476 8.08823 12.8152 8.08823 12.3636 7.63636C11.9121 7.18449 11.9123 6.45187 12.3642 6L13.1824 5.18182Z" fill="#D9D9D9"/>
<path d="M18.27 8.26251L19.2308 7.69084L20.3425 7.80999L19.2625 9.49333L18.27 8.26251Z" fill="#D9D9D9"/>
</svg>
