<svg width="24" height="24" viewBox="0 0 24 24" fill="none" xmlns="http://www.w3.org/2000/svg">
<path d="M21 9.37648C22.1046 9.37648 23 10.2719 23 11.3765V19.3765C23 20.481 22.1046 21.3765 21 21.3765H3C1.89543 21.3765 1 20.481 1 19.3765V11.3765C1 10.2719 1.89543 9.37648 3 9.37648H21ZM5 14.4995H2V16.4995H5V20.8765H8V16.4995H16V20.8765H19V16.4995H22V14.4995H19V9.87648H16V14.4995H8V9.87648H5V14.4995Z" fill="currentColor"/>
<path d="M5.49999 20.5C5.49999 17.9607 5.49999 8.56957 5.49999 7.06365C5.49999 0.569572 18.5 0.569572 18.5 7.06365C18.5 8.56957 18.5 18.1768 18.5 20.5C17.7189 20.5 17.281 20.5 16.5 20.5C16.5 17.8687 16.5 8.56957 16.5 7.06365C16.5 3.06957 7.49999 3.06957 7.49999 7.06365C7.49999 8.56957 7.49999 17.8685 7.49999 20.5C6.71894 20.5 6.28104 20.5 5.49999 20.5Z" fill="currentColor"/>
<path d="M22.75 14.25V16.75H1.25V14.25H22.75Z" stroke="currentColor" stroke-width="0.5"/>
</svg>
