<svg width="24" height="24" viewBox="0 0 24 24" fill="none" xmlns="http://www.w3.org/2000/svg">
<path d="M21 18C21 18.5523 20.5523 19 20 19H4C3.44772 19 3 18.5523 3 18V9.25H21V18ZM7.5 11C5.567 11 4 12.567 4 14.5C4 16.433 5.567 18 7.5 18C9.16953 18 10.5644 16.8307 10.9141 15.2666H15.9775L18.0205 15.2676H19.4766C19.8806 15.2676 20.2188 14.9237 20.2314 14.5C20.2438 14.0766 19.9271 13.7329 19.5234 13.7324H18.7764L18.7744 12.4766C18.7744 12.0533 18.4479 11.7198 18.0439 11.7324C17.6397 11.7455 17.3107 12.1 17.3105 12.5234L17.3115 13.7324L16.7324 13.7314L16.7314 12.9766C16.7314 12.5532 16.4041 12.2205 16 12.2334C15.596 12.2467 15.2678 12.6002 15.2676 13.0234L15.2686 13.7324H10.9141C10.564 12.1688 9.1692 11 7.5 11ZM7.5 13C8.32843 13 9 13.6716 9 14.5C9 15.3284 8.32843 16 7.5 16C6.67157 16 6 15.3284 6 14.5C6 13.6716 6.67157 13 7.5 13ZM20 6C20.5523 6 21 6.44772 21 7V8.75H3V7C3 6.44772 3.44772 6 4 6H20ZM19 8.5L20.5 7.5L19 6.5V8.5Z" fill="#D9D9D9"/>
</svg>
