<svg width="24" height="24" viewBox="0 0 24 24" fill="none" xmlns="http://www.w3.org/2000/svg">
<path d="M2 21H22V22H2V21Z" fill="#D9D9D9"/>
<path d="M22 8V9H21V20.5H18V10.5H6V20.5H3V9H2V8L12 5L22 8Z" fill="#D9D9D9"/>
<path d="M6.5 16V18H9V16H6.5Z" fill="#D9D9D9"/>
<path d="M6.5 18.5V20.5H9V18.5H6.5Z" fill="#D9D9D9"/>
<path d="M6.5 13.5V15.5H9V13.5H6.5Z" fill="#D9D9D9"/>
<path d="M9.5 16V18H12V16H9.5Z" fill="#D9D9D9"/>
<path d="M9.5 18.5V20.5H12V18.5H9.5Z" fill="#D9D9D9"/>
<path d="M15 18.5V20.5H17.5V18.5H15Z" fill="#D9D9D9"/>
</svg>
