<svg width="24" height="24" viewBox="0 0 24 24" fill="none" xmlns="http://www.w3.org/2000/svg">
<path d="M6 2C6 2 14.5948 1.59476 18.5 5.5C22.4052 9.40524 22 18 22 18C22 18 19.8366 10.8366 16.5 7.5C13.1634 4.16336 6 2 6 2Z" fill="#D9D9D9"/>
<path d="M2.10212 20.3658C15.8024 7.68801 17.832 5.15244 18.8469 4.13821C19.3543 3.6311 20.3691 4.64533 19.8617 5.15244C18.8469 6.16665 16.3098 8.19512 3.62437 21.8872C3.11696 22.4349 1.59471 20.8354 2.10212 20.3658Z" fill="#D9D9D9"/>
<path d="M17.2929 4.70711C17.6834 4.31658 18.3166 4.31658 18.7071 4.70711L19.2929 5.29289C19.6834 5.68342 19.6834 6.31658 19.2929 6.70711L17.7071 8.29289C17.3166 8.68342 16.6834 8.68342 16.2929 8.29289L15.7071 7.70711C15.3166 7.31658 15.3166 6.68342 15.7071 6.29289L17.2929 4.70711Z" fill="#D9D9D9"/>
</svg>
