<svg width="24" height="24" viewBox="0 0 24 24" fill="none" xmlns="http://www.w3.org/2000/svg">
<path d="M11.536 6.15543C11.704 5.73719 12.296 5.73719 12.464 6.15542L13.6934 9.21693C13.7649 9.39503 13.9321 9.51648 14.1236 9.52946L17.4151 9.75265C17.8648 9.78314 18.0478 10.3462 17.7019 10.6352L15.1701 12.7505C15.0229 12.8736 14.959 13.0701 15.0058 13.2562L15.8107 16.4556C15.9207 16.8927 15.4417 17.2407 15.06 17.0011L12.2659 15.2469C12.1033 15.1449 11.8967 15.1449 11.7341 15.2469L8.94002 17.0011C8.55831 17.2407 8.07932 16.8927 8.18927 16.4556L8.99416 13.2562C9.04099 13.0701 8.97714 12.8736 8.82986 12.7505L6.2981 10.6352C5.95223 10.3462 6.13519 9.78314 6.58486 9.75265L9.87644 9.52946C10.0679 9.51648 10.2351 9.39503 10.3066 9.21693L11.536 6.15543Z" fill="#D9D9D9"/>
<circle cx="12" cy="12" r="8" stroke="#D9D9D9" stroke-width="2"/>
</svg>
