<svg width="24" height="24" viewBox="0 0 24 24" fill="none" xmlns="http://www.w3.org/2000/svg">
<path d="M17.3873 12.8571C17.2529 13.702 16.9205 14.5082 16.4129 15.2068C15.9054 15.9053 15.2413 16.4694 14.4794 16.8583L13.88 15.0117C14.265 14.7714 14.6037 14.4591 14.8736 14.0876C15.1435 13.716 15.3366 13.2977 15.4461 12.8571H17.3873Z" fill="#D9D9D9"/>
<path d="M16.798 16.1016C16.7714 16.1327 16.7431 16.1623 16.716 16.1928C16.7467 16.1583 16.7781 16.1243 16.808 16.089L16.798 16.1016Z" fill="#D9D9D9"/>
<path d="M14.6945 12C14.6944 12.5687 14.5147 13.1235 14.1805 13.5837L14.0483 13.7511C13.7266 14.1274 13.3055 14.4092 12.832 14.5631L12.5851 13.8005C12.9653 13.677 13.2968 13.4366 13.5318 13.1133C13.7668 12.7898 13.8934 12.3999 13.8934 12H14.6945Z" fill="#D9D9D9"/>
<path d="M9.71568 14.7188C10.0633 15.0108 10.4657 15.2364 10.9026 15.3783C11.3392 15.5202 11.7969 15.5734 12.2494 15.5416L12.8496 17.3881C12.0048 17.5213 11.136 17.4547 10.315 17.1881C9.49387 16.9213 8.7515 16.464 8.14621 15.8597L9.71568 14.7188Z" fill="#D9D9D9"/>
<path d="M12.832 14.5631C12.2913 14.7386 11.7087 14.7386 11.168 14.5631C10.6944 14.4092 10.2736 14.1268 9.95173 13.7503L9.82031 13.5837L10.4682 13.1133C10.7032 13.4366 11.0347 13.677 11.4149 13.8005C11.7952 13.9241 12.2048 13.9241 12.5851 13.8005L12.832 14.5631Z" fill="#D9D9D9"/>
<path d="M10.4682 10.8867C10.2332 11.2102 10.1066 11.6001 10.1066 12C10.1066 12.3999 10.2332 12.7898 10.4682 13.1133L6.89397 15.7098L9.82031 13.5837C9.48605 13.1235 9.30559 12.5688 9.30552 12C9.30559 11.4311 9.48594 10.8765 9.82031 10.4163L10.4682 10.8867Z" fill="#D9D9D9"/>
<path d="M8.70871 10.6682C8.53848 11.089 8.44842 11.5408 8.44838 12C8.44842 12.4591 8.53858 12.9111 8.70871 13.3318L7.13839 14.4727C6.75076 13.7104 6.54581 12.8632 6.54576 12C6.54581 11.1366 6.75064 10.2897 7.13839 9.52734L8.70871 10.6682Z" fill="#D9D9D9"/>
<path d="M5.80999 13.2338C5.84218 13.3953 5.88086 13.5552 5.9255 13.7134C5.90318 13.6343 5.88194 13.5549 5.86272 13.4749L5.80999 13.2338Z" fill="#D9D9D9"/>
<path d="M11.168 9.43778C11.709 9.26209 12.2919 9.26201 12.8329 9.43778L12.5851 10.1995C12.2048 10.0759 11.7952 10.0759 11.4149 10.1995C11.0347 10.323 10.7032 10.5634 10.4682 10.8867L9.82031 10.4163C10.1129 10.0136 10.5107 9.70111 10.9679 9.51144L11.168 9.43778Z" fill="#D9D9D9"/>
<path d="M10.315 6.81278C11.1361 6.54608 12.0048 6.47873 12.8496 6.61189L12.2494 8.45759C11.7968 8.42576 11.3392 8.48065 10.9026 8.62249C10.4657 8.76447 10.0633 8.98917 9.71568 9.28125L8.14537 8.14035C8.75074 7.53576 9.49368 7.07965 10.315 6.81278Z" fill="#D9D9D9"/>
<path d="M12.8329 9.43778C13.3739 9.61365 13.8461 9.95605 14.1805 10.4163L14.2985 10.5938C14.5568 11.0158 14.6944 11.5025 14.6945 12H13.8934C13.8934 11.6001 13.7668 11.2102 13.5318 10.8867C13.2968 10.5634 12.9653 10.323 12.5851 10.1995L12.8329 9.43778Z" fill="#D9D9D9"/>
<path d="M14.4794 7.14174C15.2414 7.53063 15.9053 8.09548 16.4129 8.79408C16.9203 9.4925 17.2528 10.2983 17.3873 11.1429H15.4461C15.3366 10.7025 15.1434 10.2838 14.8736 9.91239C14.6036 9.54085 14.2651 9.22777 13.88 8.98744L14.4794 7.14174Z" fill="#D9D9D9"/>
<path fill-rule="evenodd" clip-rule="evenodd" d="M12 3.23103C12.1837 3.23103 12.3675 3.23707 12.5508 3.2486L12.565 3.01925C13.9925 3.1077 15.3285 3.5297 16.4992 4.20703L16.3845 4.40625C16.4639 4.45212 16.5426 4.49937 16.6205 4.54771L16.8524 4.69671L16.9805 4.50335C18.1332 5.27074 19.0965 6.298 19.7921 7.5L19.5938 7.61551C19.6856 7.77452 19.7724 7.93655 19.8541 8.101L20.0608 7.99805C20.6606 9.20376 21 10.562 21 12H20.769L20.764 12.2754C20.7611 12.3672 20.7572 12.4591 20.7514 12.5508L20.9799 12.565C20.8915 13.9926 20.4696 15.3284 19.7921 16.4992L19.5938 16.3845C19.5019 16.5435 19.4049 16.6995 19.3033 16.8524L19.4958 16.9805C18.7283 18.1333 17.7013 19.0965 16.4992 19.7921L16.3845 19.5938C16.2255 19.6856 16.0635 19.7724 15.899 19.8541L16.0011 20.0608C14.7956 20.6604 13.4378 21 12 21V20.769C11.8163 20.769 11.6325 20.7629 11.4492 20.7514L11.4342 20.9799C10.0066 20.8913 8.67066 20.4697 7.5 19.7921L7.61551 19.5938C7.45652 19.5019 7.30052 19.4049 7.1476 19.3033L7.01869 19.4958C5.86603 18.7283 4.90254 17.7013 4.20703 16.4992L4.40625 16.3845C4.31445 16.2255 4.22757 16.0635 4.14593 15.899L3.93834 16.0011C3.3389 14.7957 3 13.4376 3 12H3.23103C3.23103 11.8163 3.23707 11.6325 3.2486 11.4492L3.01925 11.4342C3.10782 10.0067 3.52962 8.67059 4.20703 7.5L4.40625 7.61551C4.49805 7.45652 4.59511 7.30052 4.69671 7.1476L4.50335 7.01869C5.27077 5.86606 6.29804 4.90259 7.5 4.20703L7.61551 4.40625C7.77452 4.31445 7.93655 4.22757 8.101 4.14593L7.99805 3.93834C9.20367 3.33869 10.5621 3 12 3V3.23103ZM12 5.57143C8.4496 5.57143 5.57143 8.4496 5.57143 12C5.57143 15.5504 8.4496 18.4286 12 18.4286C15.5504 18.4286 18.4286 15.5504 18.4286 12C18.4286 8.4496 15.5504 5.57143 12 5.57143Z" fill="#D9D9D9"/>
</svg>
