<svg width="24" height="24" viewBox="0 0 24 24" fill="none" xmlns="http://www.w3.org/2000/svg">
<g clip-path="url(#clip0_89_6)">
<path d="M11.072 3.31085C11.4079 2.47438 12.5921 2.47438 12.928 3.31085L14.8696 8.1458C15.0126 8.502 15.3469 8.74489 15.7299 8.77086L20.9282 9.12333C21.8275 9.18431 22.1934 10.3105 21.5017 10.8884L17.5034 14.2291C17.2088 14.4752 17.0811 14.8682 17.1747 15.2404L18.4459 20.2932C18.6658 21.1674 17.7078 21.8634 16.9444 21.3841L12.5317 18.6138C12.2066 18.4097 11.7934 18.4097 11.4683 18.6138L7.05561 21.3841C6.29219 21.8634 5.3342 21.1674 5.55411 20.2932L6.82525 15.2404C6.9189 14.8682 6.79121 14.4752 6.49664 14.2291L2.49831 10.8884C1.80658 10.3105 2.1725 9.18431 3.07183 9.12333L8.27012 8.77086C8.6531 8.74489 8.9874 8.502 9.13045 8.1458L11.072 3.31085Z" fill="#D9D9D9"/>
</g>
<defs>
<clipPath id="clip0_89_6">
<rect width="24" height="24" fill="white"/>
</clipPath>
</defs>
</svg>
