<svg width="24" height="24" viewBox="0 0 24 24" fill="none" xmlns="http://www.w3.org/2000/svg">
<path d="M17 22H13.5V17.5H10.5V22H7V3H17V22ZM8 17H10V15H8V17ZM14 17H16V15H14V17ZM8 13H10V11H8V13ZM14 13H16V11H14V13ZM11 6H9V8H11V10H13V8H15V6H13V4H11V6Z" fill="#D9D9D9"/>
<rect x="1" y="8" width="5" height="1" fill="#D9D9D9"/>
<rect x="6" y="2" width="12" height="1" fill="#D9D9D9"/>
<rect x="18" y="8" width="5" height="1" fill="#D9D9D9"/>
<path d="M6 22H2V9H6V22ZM3 15V17H5V15H3ZM3 13H5V11H3V13Z" fill="#D9D9D9"/>
<path d="M22 22H18V9H22V22ZM19 15V17H21V15H19ZM19 13H21V11H19V13Z" fill="#D9D9D9"/>
<rect x="1" y="21" width="22" height="1" fill="#D9D9D9"/>
</svg>
