<svg width="24" height="24" viewBox="0 0 24 24" fill="none" xmlns="http://www.w3.org/2000/svg">
<path d="M21.5 18H2.5V7H21.5V18ZM3 17.5H21V7.5H3V17.5ZM20.5 17H3.5V8H20.5V17ZM4 16.5859H6C6 16.3233 5.94817 16.063 5.84766 15.8203C5.74716 15.5777 5.59971 15.3575 5.41406 15.1719C5.22842 14.9862 5.00816 14.8388 4.76562 14.7383C4.52297 14.6378 4.26264 14.5859 4 14.5859V16.5859ZM20 14.5859C19.7374 14.5859 19.477 14.6378 19.2344 14.7383C18.9918 14.8388 18.7716 14.9862 18.5859 15.1719C18.4003 15.3575 18.2528 15.5777 18.1523 15.8203C18.0518 16.063 18 16.3233 18 16.5859H20V14.5859ZM11.9688 8.5C9.75975 8.50016 7.96875 10.291 7.96875 12.5C7.96875 14.709 9.75975 16.4998 11.9688 16.5C14.1779 16.5 15.9688 14.7091 15.9688 12.5C15.9688 10.2909 14.1779 8.5 11.9688 8.5ZM4 10.4141C4.26264 10.4141 4.52298 10.3622 4.76562 10.2617C5.00815 10.1612 5.22843 10.0138 5.41406 9.82812C5.59971 9.64246 5.74716 9.42226 5.84766 9.17969C5.94817 8.93704 6 8.67671 6 8.41406H4V10.4141ZM18 8.41406C18 8.67671 18.0518 8.93704 18.1523 9.17969C18.2528 9.42226 18.4003 9.64246 18.5859 9.82812C18.7716 10.0138 18.9918 10.1612 19.2344 10.2617C19.477 10.3622 19.7374 10.4141 20 10.4141V8.41406H18Z" fill="#D9D9D9"/>
<path d="M11.8105 8.89136C11.8717 8.70995 12.1283 8.70995 12.1895 8.89136L12.8961 10.9855C12.9228 11.0645 12.9955 11.1186 13.0788 11.1215L15.1856 11.1934C15.3694 11.1996 15.448 11.4297 15.3065 11.5472L13.6206 12.9462C13.5603 12.9962 13.5348 13.0769 13.5553 13.1525L14.1452 15.3266C14.1946 15.5087 13.9874 15.6517 13.8347 15.5408L12.1175 14.295C12.0474 14.2442 11.9526 14.2442 11.8826 14.295L10.1653 15.5408C10.0126 15.6517 9.80543 15.5087 9.85484 15.3266L10.4447 13.1525C10.4653 13.0769 10.4397 12.9962 10.3794 12.9462L8.69354 11.5472C8.55203 11.4297 8.63065 11.1996 8.81443 11.1934L10.9212 11.1215C11.0045 11.1186 11.0773 11.0645 11.1039 10.9855L11.8105 8.89136Z" fill="#D9D9D9"/>
</svg>
