<svg width="24" height="24" viewBox="0 0 24 24" fill="none" xmlns="http://www.w3.org/2000/svg">
<circle cx="12" cy="12" r="8" stroke="#D9D9D9" stroke-width="2"/>
<path d="M8.63079 18V6.36364H12.9944C13.8884 6.36364 14.6384 6.5303 15.2444 6.86364C15.8543 7.19697 16.3145 7.6553 16.6251 8.23864C16.9395 8.81818 17.0967 9.47727 17.0967 10.2159C17.0967 10.9621 16.9395 11.625 16.6251 12.2045C16.3107 12.7841 15.8467 13.2405 15.2331 13.5739C14.6194 13.9034 13.8637 14.0682 12.966 14.0682H10.074V12.3352H12.6819C13.2047 12.3352 13.6327 12.2443 13.966 12.0625C14.2994 11.8807 14.5456 11.6307 14.7047 11.3125C14.8675 10.9943 14.949 10.6288 14.949 10.2159C14.949 9.80303 14.8675 9.43939 14.7047 9.125C14.5456 8.81061 14.2975 8.56629 13.9603 8.39205C13.627 8.21402 13.1971 8.125 12.6706 8.125H10.7387V18H8.63079Z" fill="#D9D9D9"/>
</svg>
