<svg width="24" height="24" viewBox="0 0 24 24" fill="none" xmlns="http://www.w3.org/2000/svg">
<rect x="19" y="8" width="1" height="5" fill="#D9D9D9"/>
<path d="M22.5 10L19.5 7L16.5 10H22.5Z" fill="#D9D9D9"/>
<path d="M22 8L19.5 5L17 8H22Z" fill="#D9D9D9"/>
<path d="M21.5 6L19.5 3L17.5 6H21.5Z" fill="#D9D9D9"/>
<rect x="13.5" y="7" width="1" height="5" fill="#D9D9D9"/>
<path d="M17 9L14 6L11 9H17Z" fill="#D9D9D9"/>
<path d="M16.5 7L14 4L11.5 7H16.5Z" fill="#D9D9D9"/>
<path d="M16 5L14 2L12 5H16Z" fill="#D9D9D9"/>
<rect x="13.5" y="7" width="1" height="5" fill="#D9D9D9"/>
<path d="M17 9L14 6L11 9H17Z" fill="#D9D9D9"/>
<path d="M16.5 7L14 4L11.5 7H16.5Z" fill="#D9D9D9"/>
<path d="M16 5L14 2L12 5H16Z" fill="#D9D9D9"/>
<path d="M12.5 12C18.299 12 23 14.0147 23 16.5C23 18.9853 18.299 21 12.5 21C6.70101 21 2 18.9853 2 16.5C2 14.0147 6.70101 12 12.5 12ZM10.5 16C6.91015 16 4 16.8954 4 18C4.03951 17.5009 4.52288 17.226 4.92871 17.0225C6.67121 16.2732 8.61905 16.177 10.5 16.1875C11.6819 16.2098 12.8637 16.3164 14.0107 16.5557C14.5832 16.6773 15.1485 16.8312 15.6738 17.0557C16.1747 17.2676 16.7518 17.6273 16.75 18C16.7518 18.3727 16.1747 18.7324 15.6738 18.9443C15.1485 19.1688 14.5832 19.3227 14.0107 19.4443C12.8637 19.6836 11.6819 19.7902 10.5 19.8125C8.61906 19.823 6.67121 19.7268 4.92871 18.9775C4.52288 18.774 4.03951 18.4991 4 18C4 19.1046 6.91015 20 10.5 20C14.0899 20 17 19.1046 17 18C17 16.8954 14.0899 16 10.5 16ZM10.25 17C8.73122 17 7.5 17.3358 7.5 17.75C7.5 18.1642 8.73122 18.5 10.25 18.5C11.7688 18.5 13 18.1642 13 17.75C13 17.3358 11.7688 17 10.25 17Z" fill="#D9D9D9"/>
</svg>
