<svg width="24" height="24" viewBox="0 0 24 24" fill="none" xmlns="http://www.w3.org/2000/svg">
<path d="M16.0002 21.4999H10.5002V17.4999H7.50018V21.4999H2.00018V12.4999H16.0002V21.4999ZM4.00018 18.9999H6.00018V16.9999H4.00018V18.9999ZM12.0002 16.9999V18.9999H14.0002V16.9999H12.0002Z" fill="#D9D9D9"/>
<path d="M0 21.5H24V22H0V21.5Z" fill="#D9D9D9"/>
<path d="M1 12H17V13H1V12Z" fill="#D9D9D9"/>
<path d="M10 5.17893C10 5.05101 10.0087 4.92498 10.0234 4.801C10.6869 5.28321 11.8249 6.10246 11.8457 6.11741L13.3203 5.61057L13.6064 3.83714C13.6025 3.83382 13.5193 3.76506 11.792 2.32151C12.2138 2.11617 12.6875 2.00028 13.1885 2.00022C14.9495 2.00022 16.3777 3.42322 16.3779 5.17893C16.3779 6.93482 14.9496 8.35862 13.1885 8.35862C11.4275 8.3584 10 6.93468 10 5.17893Z" fill="#D9D9D9"/>
<path d="M13.4788 5.46865H15.7981C15.7947 5.48088 15.6998 5.82357 15.7981 6.04677C21.5958 11.827 22.7555 12.4053 21.596 13.5614C20.4365 14.7172 19.8565 13.8494 14.0589 7.78017C13.7837 7.69865 13.4841 7.77872 13.4788 7.78017V5.46865ZM20.1467 12.6942C20.1469 13.0132 20.4059 13.2721 20.7258 13.2724C21.046 13.2724 21.3058 13.0133 21.3059 12.6942C21.3059 12.375 21.0461 12.1161 20.7258 12.1161C20.4058 12.1163 20.1467 12.3751 20.1467 12.6942Z" fill="#D9D9D9"/>
</svg>
