<svg width="24" height="24" viewBox="0 0 24 24" fill="none" xmlns="http://www.w3.org/2000/svg">
<g clip-path="url(#clip0_121_111)">
<path d="M22.5527 18.3675L20.5363 20.461L15.7288 21.7514L12.9376 20.9484L14.954 18.8549L19.7615 17.5645L22.5527 18.3675Z" fill="#D9D9D9"/>
<path d="M12.7305 5.89258L15.4072 15.3926L13.3809 21L8.67773 17.1074L6 7.60742L8.02637 2L12.7305 5.89258ZM8.21387 4.70508C8.35074 5.8467 8.48812 6.98826 8.625 8.12988L8.62695 8.14258C8.93506 9.47464 9.24365 10.8066 9.55176 12.1387C9.58327 12.2749 9.61497 12.4116 9.64648 12.5479C9.8075 12.5055 9.96887 12.4632 10.1299 12.4209C10.0903 12.2868 10.0503 12.1527 10.0107 12.0186C9.62383 10.7071 9.2375 9.3954 8.85059 8.08398L8.85254 8.0957C8.6479 6.96418 8.44292 5.8327 8.23828 4.70117C8.21339 4.56355 8.18895 4.42571 8.16406 4.28809C8.18071 4.42695 8.19722 4.56622 8.21387 4.70508Z" fill="#D9D9D9"/>
<path d="M1.83999 11.2397L6.19346 12.4082L11.7134 17.9379L12.8799 22.2989L8.52648 21.1304L3.0065 15.6008L1.83999 11.2397Z" fill="#D9D9D9"/>
<path d="M17.1048 4.36211L16.9506 7.52062L14.9321 9.95493L15.0863 6.79641L17.1048 4.36211Z" fill="#D9D9D9"/>
<path d="M1.2834 18.959L4.96429 19.004L8.07838 20.967L4.39749 20.922L1.2834 18.959Z" fill="#D9D9D9"/>
<path d="M19.334 12.3984L15.915 18.3311L12.2539 20.1689L12.0117 16.0742L15.4307 10.1406L19.0928 8.30371L19.334 12.3984ZM18.3027 9.17969C17.4962 9.91403 16.6893 10.6485 15.8828 11.3828L15.8623 11.4082C15.5584 11.8209 15.2541 12.2338 14.9502 12.6465C14.8975 12.7181 14.8447 12.7897 14.792 12.8613L15.208 13.1387C15.2539 13.0623 15.2998 12.9855 15.3457 12.9092C15.608 12.4728 15.8695 12.036 16.1318 11.5996C16.861 10.7987 17.5911 9.99813 18.3203 9.19727C18.3802 9.1315 18.4401 9.06577 18.5 9C18.4342 9.05988 18.3685 9.11981 18.3027 9.17969Z" fill="#D9D9D9"/>
</g>
<defs>
<clipPath id="clip0_121_111">
<rect width="24" height="24" fill="white"/>
</clipPath>
</defs>
</svg>
