<svg width="24" height="24" viewBox="0 0 24 24" fill="none" xmlns="http://www.w3.org/2000/svg">
<path d="M2 21H22V22H2V21Z" fill="currentColor"/>
<path d="M22 8V9H21V20.5H18V10.5H6V20.5H3V9H2V8L12 5L22 8Z" fill="currentColor"/>
<path d="M6.5 16V18H9V16H6.5Z" fill="currentColor"/>
<path d="M6.5 18.5V20.5H9V18.5H6.5Z" fill="currentColor"/>
<path d="M6.5 13.5V15.5H9V13.5H6.5Z" fill="currentColor"/>
<path d="M17.0072 19.7228C17.0072 20.137 16.7014 20.4728 16.3241 20.4728C15.9469 20.4728 15.641 20.137 15.641 19.7228C15.641 19.3085 15.9469 18.9728 16.3241 18.9728C16.7014 18.9728 17.0072 19.3085 17.0072 19.7228Z" fill="currentColor"/>
<path d="M14.1831 19.7228C14.1831 20.137 13.8773 20.4728 13.5 20.4728C13.1227 20.4728 12.8169 20.137 12.8169 19.7228C12.8169 19.3085 13.1227 18.9728 13.5 18.9728C13.8773 18.9728 14.1831 19.3085 14.1831 19.7228Z" fill="currentColor"/>
<path d="M13 16V17L14 16H16V18H17V19.5H13V20H11V19.5H12.5V16H13ZM14.5 16.5L13 18V18.5H14L14.5 18H15.5V16.5H14.5Z" fill="currentColor"/>
</svg>
