<svg width="24" height="24" viewBox="0 0 24 24" fill="none" xmlns="http://www.w3.org/2000/svg">
<path d="M14.875 6.63477L16.9375 7.95215L17.1885 9.76172L18.0723 9.65918L18.7373 13.1445L21.5723 14.2686L22.5 19L21 20H13.0332L12.5498 20.5H2.35156L1.66406 16.5479L2.35156 12.5957L5.78906 10.6191H6.30371L6.28711 10.6289L7.78613 13.1289L7.84863 13.2314L7.96484 13.248L11.3818 13.7354L12.8252 15.1777L12.999 15L13.1748 14.8223L11.6758 13.3223L11.6162 13.2637L11.5342 13.252L8.15137 12.7676L6.71289 10.3711L6.57324 10.4551L8 5.97656L12.8125 4L14.875 6.63477ZM9.85938 17.293L9.82715 17.3135L9.80371 17.3447L7.80371 19.8438L8 20L8.19531 20.1562L10.1709 17.6855L13.1406 15.708L12.8604 15.292L9.85938 17.293ZM16.999 15.25L13.498 15.251L13.502 15.749H16.874L18.2998 17.6484L18.3291 17.6885L18.3711 17.7129L20.8721 19.2139L21 19L21.1279 18.7871L18.6699 17.3115L17.2002 15.3516L17.125 15.25H16.999ZM13.4199 10.7637L13.3457 10.7881L13.2998 10.8506L11.7988 12.8506L12.2012 13.1494L13.6543 11.2119L16.5811 10.2363L16.4189 9.76367L13.4199 10.7637Z" fill="#D9D9D9"/>
</svg>
