<svg width="24" height="24" viewBox="0 0 24 24" fill="none" xmlns="http://www.w3.org/2000/svg">
<path d="M2 15H13V18H2V15Z" fill="currentColor"/>
<rect x="2" y="19" width="11" height="1" fill="currentColor"/>
<rect x="3" y="19" width="1" height="3" fill="currentColor"/>
<rect x="11" y="19" width="1" height="3" fill="currentColor"/>
<path d="M16 13.5H18V22.5H16V18V13.5Z" fill="currentColor"/>
<rect y="22" width="24" height="1" fill="currentColor"/>
<path d="M13 14V13L17 17V18L15 16L13 14Z" fill="currentColor"/>
<path d="M17 1.5C18.6569 1.5 20 2.84315 20 4.5C20 4.93667 19.9041 5.35037 19.7363 5.72461C21.0592 6.2242 22 7.50224 22 9C22 9.46479 21.9077 9.90771 21.7432 10.3135C22.5113 10.9555 23 11.9206 23 13C23 14.933 21.433 16.5 19.5 16.5C18.2463 16.5 17.1474 15.8403 16.5293 14.8496C15.9567 15.2581 15.257 15.5 14.5 15.5C12.567 15.5 11 13.933 11 12C11 10.9754 11.4399 10.0532 12.1416 9.41309C12.0497 9.12517 12 8.81839 12 8.5C12 7.1158 12.9382 5.95345 14.2129 5.60742C14.0766 5.26462 14 4.89138 14 4.5C14 2.84315 15.3431 1.5 17 1.5ZM18.5 12.5V13.5L20.5 11L18.5 12.5ZM15.5 13V12L13.5 11L15.5 13ZM16.5 11H17.5L17 4L16.5 11Z" fill="currentColor"/>
</svg>
