<svg width="24" height="24" viewBox="0 0 24 24" fill="none" xmlns="http://www.w3.org/2000/svg">
<path d="M19 2C20.6569 2 22 3.34315 22 5V19C22 20.6569 20.6569 22 19 22H5C3.34315 22 2 20.6569 2 19V5C2 3.34315 3.34315 2 5 2H19ZM6 4C4.89543 4 4 4.89543 4 6V18C4 19.1046 4.89543 20 6 20H18C19.1046 20 20 19.1046 20 18V6C20 4.89543 19.1046 4 18 4H6Z" fill="#D9D9D9"/>
<path fill-rule="evenodd" clip-rule="evenodd" d="M18 8.5V15.5L11.9995 19L6 15.5V8.5L11.9995 5L18 8.5ZM12.0005 8.88912C10.2998 8.88912 8.92026 10.2818 8.92026 12C8.92026 13.7182 10.2998 15.1109 12.0005 15.1109C13.7009 15.1106 15.0797 13.7181 15.0797 12C15.0797 10.2819 13.7009 8.88939 12.0005 8.88912Z" fill="#D9D9D9"/>
</svg>
