<svg width="24" height="24" viewBox="0 0 24 24" fill="none" xmlns="http://www.w3.org/2000/svg">
<path d="M11.9996 4C17.4996 4 19.4996 7 19.4996 11C20.4996 12 19.9996 17.5 16.9996 17C16.9996 19.0205 16.7726 20.132 15.2496 20.6436V19C15.2496 18.8619 15.1377 18.75 14.9996 18.75C14.8617 18.7502 14.7496 18.8621 14.7496 19V20.7803C14.4555 20.8448 14.1239 20.8945 13.7496 20.9297V19.5C13.7496 19.3619 13.6377 19.25 13.4996 19.25C13.3617 19.2502 13.2496 19.3621 13.2496 19.5V20.9668C12.9418 20.9844 12.6092 20.993 12.2496 20.9961V19.5C12.2496 19.3619 12.1377 19.25 11.9996 19.25C11.8617 19.2502 11.7496 19.3621 11.7496 19.5V20.9961C11.39 20.9929 11.0574 20.9844 10.7496 20.9668V19.5C10.7496 19.3619 10.6377 19.25 10.4996 19.25C10.3617 19.2502 10.2496 19.3621 10.2496 19.5V20.9297C9.87534 20.8945 9.54373 20.8448 9.2496 20.7803V19C9.2496 18.8619 9.13767 18.75 8.9996 18.75C8.86172 18.7502 8.7496 18.8621 8.7496 19V20.6436C7.2273 20.1319 6.9996 19.0202 6.9996 17C4.00016 17.4994 3.49994 12.0005 4.4996 11C4.4996 7.00009 6.49992 4.00014 11.9996 4ZM12.4791 14.4297C12.3366 13.9546 11.6636 13.9546 11.5211 14.4297L10.8531 16.6553C10.7243 17.0848 11.1827 17.4537 11.5748 17.2363L11.7574 17.1348C11.9083 17.051 12.0919 17.051 12.2428 17.1348L12.4244 17.2363C12.8165 17.4542 13.2759 17.0849 13.1471 16.6553L12.4791 14.4297ZM8.75449 11.5C7.52376 11.5 6.07968 12.5074 6.07968 13.75C6.07968 14.9926 6.63215 16 7.86288 16C9.09357 15.9999 10.4996 14.9926 10.4996 13.75C10.4996 12.5075 9.98493 11.5002 8.75449 11.5ZM15.3316 11.5C14.0672 11.5002 13.4996 12.5075 13.4996 13.75C13.4996 14.9925 14.983 15.9998 16.2477 16C17.5124 16 18.0797 14.9926 18.0797 13.75C18.0797 12.5074 16.5964 11.5 15.3316 11.5Z" fill="#D9D9D9"/>
</svg>
