<svg width="24" height="24" viewBox="0 0 24 24" fill="none" xmlns="http://www.w3.org/2000/svg">
<path d="M11.9996 1.99968C12.4524 1.99968 14.4997 8.49939 16.4996 10.9997C18.4995 13.4996 19.3884 17.4996 18.4996 19.4997C16.4996 23.9997 7.49959 23.9997 5.49959 19.4997C4.61101 17.4995 5.49973 13.4995 7.49959 10.9997C9.49899 8.50043 11.546 2.00359 11.9996 1.99968ZM7.49959 16.4997C6.99964 16.0012 6.35615 18.415 6.85603 19.4147C7.35604 20.4145 8.4997 20.9995 9.49959 20.4997C10.4996 19.9997 8.8325 19.3326 8.49959 18.9997C8.16692 18.6659 7.99941 16.9995 7.49959 16.4997Z" fill="#D9D9D9"/>
</svg>
