<svg width="24" height="24" viewBox="0 0 24 24" fill="none" xmlns="http://www.w3.org/2000/svg">
<path d="M4.4834 12.7734V15.5244L4.63477 15.5625L6.63477 16.0625L6.88379 16.125V13.5176L7.14453 13.4395L9.7002 14.0781V22.1562L2 19.751V12.1533L4.4834 12.7734ZM17.5996 19.751L9.89941 22.1562V14.0781L17.5996 12.1533V19.751ZM6.76367 13.3438L6.68359 13.3682V15.8682L4.68359 15.3682V12.8682L4.76367 12.8438L6.76367 13.3438Z" fill="#D9D9D9"/>
<path d="M17.3887 11.8975L9.7998 13.7939L7.70801 13.2705L14.6201 11.2051L17.3887 11.8975ZM14.2402 11.1094L7.32617 13.1758L5.32617 12.6758L12.2402 10.6094L14.2402 11.1094ZM11.8604 10.5146L4.94629 12.5801L2.21094 11.8975L9.7998 10L11.8604 10.5146Z" fill="#D9D9D9"/>
<path d="M4.68394 15.3685V12.8685L11.7998 10.8975L9.7998 12.3975L6.68394 13.3685V15.8685L4.68394 15.3685Z" fill="#D9D9D9"/>
<path d="M11.2334 13.7441C12.1377 14.4412 13.2699 14.8574 14.5 14.8574C15.6556 14.8574 16.7245 14.4894 17.5996 13.8672V16.3262C16.6545 16.7564 15.6062 17 14.5 17V16.8076C14.3469 16.8076 14.1938 16.8026 14.041 16.793L14.0283 16.9834C12.8387 16.9096 11.7255 16.5577 10.75 15.9932L10.8467 15.8281C10.7142 15.7516 10.5835 15.6706 10.4561 15.5859L10.3486 15.7461C10.1942 15.6432 10.0454 15.5327 9.89941 15.4189V14.0781L11.2334 13.7441ZM14.5 2.19238C14.6531 2.19238 14.8062 2.19742 14.959 2.20703L14.9707 2.01562C16.1602 2.08932 17.2735 2.44149 18.249 3.00586L18.1533 3.17188C18.2195 3.2101 18.2856 3.24976 18.3506 3.29004L18.5439 3.41406L18.6504 3.25293C19.611 3.89239 20.4135 4.74841 20.9932 5.75L20.8281 5.84668C20.9046 5.97908 20.9769 6.11404 21.0449 6.25098L21.2178 6.16504C21.7175 7.16976 22 8.3017 22 9.5H21.8076L21.8037 9.72949C21.8013 9.80598 21.7978 9.8826 21.793 9.95898L21.9834 9.9707C21.9097 11.1603 21.5577 12.2734 20.9932 13.249L20.8281 13.1533C20.7516 13.2858 20.6706 13.4165 20.5859 13.5439L20.7461 13.6504C20.1826 14.4968 19.4508 15.2197 18.5996 15.7764V12.9463C19.3836 12.0146 19.8574 10.813 19.8574 9.5C19.8574 6.54133 17.4587 4.14258 14.5 4.14258C11.6658 4.14258 9.34639 6.34389 9.15625 9.12988L7.00391 9.66797C7.00267 9.61211 7 9.55615 7 9.5H7.19238C7.19238 9.34695 7.19742 9.19376 7.20703 9.04102L7.01562 9.02832C7.08945 7.83884 7.44137 6.72546 8.00586 5.75L8.17188 5.84668C8.24838 5.71418 8.3294 5.58349 8.41406 5.45605L8.25293 5.34863C8.89243 4.38821 9.74846 3.58544 10.75 3.00586L10.8467 3.17188C10.9791 3.09544 11.114 3.02306 11.251 2.95508L11.165 2.78223C12.1697 2.28252 13.3017 2 14.5 2V2.19238ZM9.7002 14.0781V15.2598C9.17005 14.817 8.70362 14.302 8.3125 13.7305L9.7002 14.0781ZM15.208 13.9902C14.504 14.1012 13.7799 14.0454 13.0957 13.8232C12.8193 13.7334 12.5546 13.6158 12.3027 13.4766L14.835 12.8438L15.208 13.9902ZM10.1006 12.5547C10.3442 12.9049 10.6281 13.2244 10.9463 13.5068L9.7998 13.7939L8.0752 13.3623C8.0524 13.3245 8.028 13.2873 8.00586 13.249L8.17188 13.1533C8.1683 13.1471 8.16469 13.141 8.16113 13.1348L10.1006 12.5547ZM17.5996 12.8223C17.2903 13.1106 16.9435 13.3564 16.5664 13.5488L16.2246 12.4961L17.5996 12.1533V12.8223ZM12.6377 11.7969C12.9181 12.0243 13.2384 12.2025 13.5859 12.3154C13.9496 12.4335 14.331 12.4777 14.708 12.4512L14.7422 12.5586L11.9443 13.2578C11.7097 13.0982 11.4894 12.9178 11.2881 12.7168L12.4932 11.8398L12.6377 11.7969ZM9.50098 11.4277C9.63037 11.7631 9.7924 12.082 9.9834 12.3809L8.06543 12.9541C8.02871 12.8857 7.98958 12.8185 7.95508 12.749L7.78223 12.834C7.65487 12.5779 7.5414 12.3136 7.44336 12.042L9.50098 11.4277ZM17.3887 11.8975L16.1318 12.2109L16.0664 12.0098C16.2222 11.9125 16.3684 11.8001 16.5039 11.6758L17.3887 11.8975ZM9.18359 10.1533C9.22925 10.5287 9.31344 10.892 9.43262 11.2393L7.38086 11.8525C7.2551 11.4726 7.15766 11.0799 7.09375 10.6758L9.18359 10.1533ZM15.6074 11.4512C15.5212 11.5001 15.4323 11.5447 15.3398 11.582L15.1943 11.6348C14.7436 11.7812 14.2574 11.7821 13.8066 11.6357C13.7149 11.6059 13.6265 11.5684 13.54 11.5273L14.2324 11.3203C14.469 11.355 14.7103 11.343 14.9434 11.2852L15.6074 11.4512ZM10.4482 11.5605C10.3874 11.4408 10.3341 11.3177 10.2842 11.1934L11.4189 10.8545L10.4482 11.5605ZM18.9893 10.2139C18.9204 10.6465 18.7886 11.067 18.5996 11.4619V10.873L18.0078 11.0205L17.1523 10.8066C17.2456 10.6169 17.3211 10.4187 17.3721 10.2139H18.9893ZM13.2676 10.8662C13.4392 11.0211 13.6391 11.1422 13.8574 11.2236L13.293 11.3916C13.0574 11.2411 12.8497 11.0479 12.6836 10.8193L12.7852 10.7451L13.2676 10.8662ZM11.71 10.4766C11.7187 10.5014 11.727 10.5262 11.7363 10.5508L10.2129 11.0059C10.104 10.6958 10.027 10.3746 9.9873 10.0469L11.71 10.4766ZM12.7842 10.7451L12.6826 10.8193C12.6546 10.7807 12.6289 10.7404 12.6035 10.7002L12.7842 10.7451ZM13.8066 7.36523C14.2575 7.21883 14.7435 7.21876 15.1943 7.36523C15.645 7.51183 16.0388 7.79724 16.3174 8.18066L16.415 8.32812C16.6302 8.67983 16.7451 9.08541 16.7451 9.5C16.7451 9.89778 16.638 10.2863 16.4395 10.6279L16.0264 10.5244C16.2297 10.2215 16.3408 9.86589 16.3408 9.5C16.3408 9.11127 16.2177 8.73247 15.9893 8.41797C15.7608 8.1036 15.4389 7.86918 15.0693 7.74902C14.6996 7.62889 14.3004 7.62889 13.9307 7.74902C13.5611 7.86918 13.2392 8.10361 13.0107 8.41797C12.7823 8.73247 12.6592 9.11127 12.6592 9.5C12.6592 9.56219 12.6627 9.62409 12.6689 9.68555L12.4824 9.63965L12.2578 9.58203C12.2568 9.55472 12.2549 9.52741 12.2549 9.5C12.2549 9.02604 12.4051 8.56415 12.6836 8.18066C12.9274 7.84511 13.2586 7.58384 13.6396 7.42578L13.8066 7.36523ZM11.7568 8.39062C11.6268 8.71208 11.5553 9.0555 11.5439 9.40527L10.042 9.03027L9.98145 9.01465C10.0405 8.46502 10.1982 7.93103 10.4482 7.43945L11.7568 8.39062ZM16.5664 5.45117C17.2014 5.77524 17.7548 6.24601 18.1777 6.82812C18.6005 7.41014 18.8772 8.08231 18.9893 8.78613H17.3721C17.2808 8.41929 17.1193 8.07022 16.8945 7.76074C16.6695 7.45113 16.3873 7.18953 16.0664 6.98926L16.5664 5.45117ZM13.0957 5.17773C13.7799 4.95548 14.504 4.89881 15.208 5.00977L14.708 6.54785C14.3309 6.52134 13.9497 6.56743 13.5859 6.68555C13.2219 6.80384 12.8863 6.99104 12.5967 7.23438L11.2881 6.2832C11.7924 5.77962 12.4115 5.40008 13.0957 5.17773Z" fill="#D9D9D9"/>
</svg>
