<svg width="24" height="24" viewBox="0 0 24 24" fill="none" xmlns="http://www.w3.org/2000/svg">
<path d="M5 15L16.5 3.5L18.5 5.5L20.5 7.5L17 11L16 10L15.5 10.5L16.5 11.5L15.5 12.5L14.5 11.5L14 12L15 13L14 14L13 13L12.5 13.5L13.5 14.5L12.5 15.5L11.5 14.5L11 15L12 16L9 19L5 15Z" fill="currentColor"/>
<path d="M18.25 4.25L19.75 5.75L19.25 6.25L17.75 4.75L18.25 4.25Z" fill="currentColor"/>
<path d="M18 5.5L21.5 2H22.5L18.5 6L18 5.5Z" fill="currentColor"/>
<path d="M4 14L10 20L9.5 20.5L3.5 14.5L4 14Z" fill="currentColor"/>
<path d="M5.5 17L7 18.5L4.5 21L5.5 22L5 22.5L1.5 19L2 18.5L3 19.5L5.5 17Z" fill="currentColor"/>
</svg>
