<svg width="24" height="24" viewBox="0 0 24 24" fill="none" xmlns="http://www.w3.org/2000/svg">
<path d="M20 3C20.5523 3 21 3.44772 21 4V17.8818C21 18.2606 20.786 18.607 20.4473 18.7764L12 23L3.55273 18.7764C3.21398 18.607 3 18.2606 3 17.8818V4C3 3.44772 3.44772 3 4 3H20ZM5 4C4.44772 4 4 4.44772 4 5V17.335C4 17.7118 4.21175 18.0572 4.54785 18.2275L12 22L19.4521 18.2275C19.7882 18.0572 20 17.7118 20 17.335V5C20 4.44772 19.5523 4 19 4H5ZM19 4.5C19.2761 4.5 19.5 4.72386 19.5 5V17.335C19.5 17.5234 19.3938 17.6961 19.2256 17.7812L12 21.4395L4.77441 17.7812C4.60625 17.6961 4.5 17.5234 4.5 17.335V5C4.5 4.72386 4.72386 4.5 5 4.5H19ZM7.02051 8.04199C7.01401 8.40195 7.07322 8.88345 7.41504 9.05176L9.71191 10.1826C9.74203 10.4048 9.74554 10.6872 9.65332 10.9961C9.10483 12.8312 8.81863 12.6913 11.6768 14.0986C11.8383 14.1783 11.9769 14.4768 12.085 14.793C11.8722 16.0467 11.4981 17.3452 10.9844 18.3887L10.6982 18.248L10.5322 18.5869L13.6758 20.1348C15.701 18.1847 14.2262 13.2478 17.0967 13.1875L17.1797 13.0186L13.0342 10.9775H13.0352L12.4639 10.6963H12.4629L11.749 10.3447C11.7643 10.3588 11.7774 10.3758 11.792 10.3916L7.02051 8.04199ZM12.1055 11.3613C11.302 12.7235 10.7399 12.7857 10.7246 12.7871L11.0098 12.9277C11.0098 12.9277 11.5741 12.9726 12.2754 12.1621C12.2969 12.6154 12.2842 13.1221 12.2354 13.6562C12.0865 13.7536 11.9441 13.8089 11.8438 13.7598C9.27171 12.4933 9.5569 12.6335 9.93848 11.1377C10.0202 10.8173 10.2205 10.6364 10.4258 10.5342L12.1055 11.3613ZM7.77246 5.43945L7.20117 5.1582L7.03418 5.49707L6.74805 5.35645L6.08105 6.71191L6.36621 6.85254L6.11035 7.37305L14.5508 11.5283L14.7354 11.6182V11.6191L14.8975 11.6992V11.6982L15.082 11.7891V11.79L17.2578 12.8613L17.5137 12.3408C17.5074 12.3373 16.8724 11.9835 16.625 11.6201L17.8955 10.8447L17.3232 10.5635L16.6191 10.7568C16.7361 10.3483 16.918 9.94459 16.9189 9.94238L16.3467 9.66016L16.5137 9.32227L15.9424 9.04102L15.7754 9.37891L15.582 9.28418L15.123 11.584L14.9385 11.4932L15.3906 9.22949L15.4902 9.23926L15.2363 9.11426L14.7764 11.4131L14.5918 11.3223L14.6797 10.8838L14.8223 10.5947L14.7451 10.5566L15.04 9.08398L15.1396 9.09277L15.2051 9.09863L8.05762 5.58008L8.22559 5.24121L7.93945 5.10059L7.77246 5.43945Z" fill="#D9D9D9"/>
</svg>
