<svg width="24" height="24" viewBox="0 0 24 24" fill="none" xmlns="http://www.w3.org/2000/svg">
<path d="M9 9L17 15.8421H15.5455L9 10.3684L2.45455 15.8421H1L9 9Z" fill="#D9D9D9"/>
<path d="M14.8185 15.8417V21.3153H10.4543V17.8944C10.4542 17.871 10.4419 16.5264 9.00018 16.5263C7.55825 16.5263 7.54521 17.8711 7.5451 17.8944V21.3153H3.18182V15.8417L9.00018 11.0526L14.8185 15.8417ZM3.90936 19.2636H6.81854V16.5263H3.90936V19.2636ZM11.1818 16.5263V19.2636H14.091V16.5263H11.1818Z" fill="#D9D9D9"/>
<path d="M3.54546 17.5526H5V16.1842H5.72727V17.5526H7.18182V18.2368H5.72727V19.6053H5V18.2368H3.54546V17.5526Z" fill="#D9D9D9"/>
<path d="M10.8182 17.5526H12.2727V16.1842H13V17.5526H14.4545V18.2368H13V19.6053H12.2727V18.2368H10.8182V17.5526Z" fill="#D9D9D9"/>
<path d="M11.9091 10.3684H14.0909V13.7895L11.9091 11.7368V10.3684Z" fill="#D9D9D9"/>
<rect x="1.72728" y="21.3158" width="14.5455" height="0.684211" fill="#D9D9D9"/>
<path d="M17.333 2C19.1739 2 20.6669 3.25262 20.667 4.79785C20.667 5.19867 20.5646 5.57913 20.3838 5.92383C21.8828 6.37708 22.9551 7.58063 22.9551 8.99512C22.9551 9.40398 22.8637 9.79459 22.7002 10.1553C23.4977 10.7531 24 11.6227 24 12.5908C23.9999 14.3936 22.2589 15.8554 20.1113 15.8555C18.2171 15.8555 16.6391 14.7181 16.293 13.2129C16.1053 13.4975 15.8681 13.755 15.5918 13.9795L14.5908 13.123V9.86816H11.4092V10.4014L10.1445 9.32031C10.393 9.11271 10.6757 8.93452 10.9834 8.78906C10.78 8.42725 10.667 8.02231 10.667 7.5957C10.6672 6.05057 12.1592 4.79785 14 4.79785L14.0039 4.6543C14.093 3.17586 15.5496 2.00014 17.333 2ZM11.5156 13.124L13.5762 14.8467C13.353 14.8801 13.1233 14.8994 12.8887 14.8994C10.741 14.8993 9 13.4376 9 11.6348C9.00001 11.4511 9.01801 11.2711 9.05273 11.0957L11.5156 13.124ZM11.4092 11.0596V11.9531L11.5664 12.1006L13.748 14.1533L14.3027 14.6748C14.2751 14.6839 14.2477 14.6936 14.2197 14.7021L11.876 12.7725L9.21973 10.5518C9.35362 10.2322 9.54463 9.9352 9.7832 9.66992L11.4092 11.0596ZM15.1709 14.2773C14.9887 14.3884 14.7949 14.4868 14.5908 14.5703V13.7812L15.1709 14.2773ZM14.0908 13.3535V13.7891L11.9092 11.7363V11.4873L14.0908 13.3535ZM14.0908 12.6953L11.9092 10.8291V10.3682H14.0908V12.6953Z" fill="#D9D9D9"/>
<path d="M18.5 15L22 13L18.5 16.25V18.6113L20 21L18.5 20.5L18 21.5L17 20.5L16.0537 20.8154H15.623L16.5 19.5V16.3418H18.3535L17.3252 15.4619L15.7441 14.1094L15 12H18L18.5 15ZM17 15.8418H16.3555L16.0771 15.0527L17 15.8418Z" fill="#D9D9D9"/>
</svg>
