<svg width="24" height="24" viewBox="0 0 24 24" fill="none" xmlns="http://www.w3.org/2000/svg">
<g clip-path="url(#clip0_83_43)">
<path d="M6.62504 11.2517L8.19466 10.2523L8.36434 10.5091L9.93396 9.50962L9.76428 9.25281L10.2875 8.91966L10.1178 8.66284L10.641 8.32969L10.8661 8.55121L21.2749 1.92349L21.1052 1.66668L21.6284 1.33353L21.7981 1.59034L22.3213 1.25719L23 2.28445L7.30376 12.279L6.62504 11.2517Z" fill="#D9D9D9"/>
<path d="M7.0916 15.3329L8.39961 14.5001L9.70763 13.6672L9.73596 11.46L10.2592 11.1268L10.5702 13.8477L7.43096 15.8466L7.0916 15.3329Z" fill="#D9D9D9"/>
<path d="M7.46729 10.4675L7.99049 10.1344L9.19243 10.8285L8.66922 11.1616L7.46729 10.4675Z" fill="#D9D9D9"/>
<path d="M7.45164 13.3173L7.97485 12.9841L9.17679 13.6782L8.65358 14.0114L7.45164 13.3173Z" fill="#D9D9D9"/>
<path d="M10.2875 8.91965L10.8107 8.5865L11.8288 10.1274L11.3056 10.4605L10.2875 8.91965Z" fill="#D9D9D9"/>
<path d="M16.905 5.43565C16.9051 5.43578 17.2446 5.94948 17.0608 6.79615C14.9683 8.12856 14.9678 8.12849 8.50599 12.9727C6.93864 14.1477 8.81684 15.6941 8.29363 16.0273C7.77047 16.3604 6.67756 17.2431 6.54047 17.8729C6.2288 19.3084 3.89587 21.7465 3.18882 22.9264C2.75753 22.8361 3.18858 22.926 1.83112 20.8715C0.474142 18.8177 0.382185 19.2402 0.473964 18.8175C0.997171 18.4843 5.88978 14.6385 5.88978 14.6385L6.44101 12.0986L16.905 5.43565ZM9.85138 10.5081L9.98837 10.7173L16.2675 6.7202L16.1291 6.51081L9.85138 10.5081Z" fill="#D9D9D9"/>
</g>
<defs>
<clipPath id="clip0_83_43">
<rect width="24" height="24" fill="white"/>
</clipPath>
</defs>
</svg>
