<svg width="24" height="24" viewBox="0 0 24 24" fill="none" xmlns="http://www.w3.org/2000/svg">
<path d="M19 5C20.1046 5 21 5.89543 21 7V17C21 18.1046 20.1046 19 19 19H5C3.89543 19 3 18.1046 3 17V7C3 5.89543 3.89543 5 5 5H19ZM5 6C4.44772 6 4 6.44772 4 7C4 7.55228 4.44772 8 5 8C5.18531 8 5.35803 7.9482 5.50684 7.86035L6.75 9.10352V11.3965L6.39648 11.75H4C3.86193 11.75 3.75 11.8619 3.75 12C3.75 12.1381 3.86193 12.25 4 12.25H5.25V15.5381C4.58307 15.6904 4.08496 16.2869 4.08496 17C4.08497 17.8283 4.75672 18.4998 5.58496 18.5C6.41339 18.5 7.08496 17.8284 7.08496 17C7.08496 16.2272 6.50097 15.5908 5.75 15.5088V14.75H6.89648L8.25 16.1035V17.1035L8.89648 17.75H14.75V15.5C14.75 15.3619 14.6381 15.25 14.5 15.25C14.3619 15.25 14.25 15.3619 14.25 15.5V17.25H13.25V16.5C13.25 16.3619 13.1381 16.25 13 16.25C12.8619 16.25 12.75 16.3619 12.75 16.5V17.25H9.10352L8.75 16.8965V15.8965L7.10352 14.25H5.75V12.25H6.60352L7.25 11.6035V9.10352L8.67676 7.67676C8.77439 7.57913 8.77439 7.42087 8.67676 7.32324C8.57913 7.22561 8.42087 7.22561 8.32324 7.32324L7 8.64648L5.86035 7.50684C5.9482 7.35803 6 7.18531 6 7C6 6.44772 5.55228 6 5 6ZM18.5 13.75C18.3619 13.75 18.25 13.8619 18.25 14V14.5H17.75V14C17.75 13.8619 17.6381 13.75 17.5 13.75C17.3619 13.75 17.25 13.8619 17.25 14V14.5H17C16.7239 14.5 16.5 14.7239 16.5 15V15.248H16.0059C15.8687 15.248 15.7541 15.3611 15.751 15.5C15.7479 15.6388 15.8571 15.7518 15.9941 15.752L16.5 15.751V16.248L16.0059 16.249C15.8688 16.249 15.7543 16.3613 15.751 16.5C15.7481 16.6386 15.8572 16.7508 15.9941 16.751H16.5V17C16.5 17.2761 16.7239 17.5 17 17.5H17.25V18C17.25 18.1381 17.3619 18.25 17.5 18.25C17.6381 18.25 17.75 18.1381 17.75 18V17.5H18.25V18C18.25 18.1381 18.3619 18.25 18.5 18.25C18.6381 18.25 18.75 18.1381 18.75 18V17.5H19C19.2761 17.5 19.5 17.2761 19.5 17V16.751H19.9941C20.1313 16.751 20.2459 16.6388 20.249 16.5C20.2521 16.3612 20.1429 16.2482 20.0059 16.248H19.5V15.751H19.9941C20.1312 15.751 20.2457 15.6387 20.249 15.5C20.2519 15.3614 20.1428 15.2492 20.0059 15.249L19.5 15.248V15C19.5 14.7239 19.2761 14.5 19 14.5H18.75V14C18.75 13.8619 18.6381 13.75 18.5 13.75ZM12 8.5C10.067 8.5 8.5 10.067 8.5 12C8.5 13.933 10.067 15.5 12 15.5C13.933 15.5 15.5 13.933 15.5 12C15.5 10.067 13.933 8.5 12 8.5ZM12 9.5C13.3807 9.5 14.5 10.6193 14.5 12C14.5 13.3807 13.3807 14.5 12 14.5C10.6193 14.5 9.5 13.3807 9.5 12C9.5 10.6193 10.6193 9.5 12 9.5ZM10 5.75C9.86193 5.75 9.75 5.86193 9.75 6C9.75 6.13807 9.86193 6.25 10 6.25H11.25V7.75H12.6035L13.1035 7.25H14.8965L16.75 9.10352V12.25H19.5C19.6381 12.25 19.75 12.1381 19.75 12C19.75 11.8619 19.6381 11.75 19.5 11.75H17.25V10.25H19.5C19.6381 10.25 19.75 10.1381 19.75 10C19.75 9.86193 19.6381 9.75 19.5 9.75H17.25V8.89648L15.6035 7.25H17.0332C17.1444 7.6811 17.5342 8 18 8C18.5523 8 19 7.55228 19 7C19 6.44772 18.5523 6 18 6C17.5342 6 17.1444 6.3189 17.0332 6.75H12.8965L12.3965 7.25H11.75V5.75H10Z" fill="#D9D9D9"/>
</svg>
