<svg width="24" height="24" viewBox="0 0 24 24" fill="none" xmlns="http://www.w3.org/2000/svg">
<path d="M1 8H23V11H1V8Z" fill="#D9D9D9"/>
<path d="M1 11.5H23V14.5H1V11.5Z" fill="#D9D9D9"/>
<path d="M1 15H23V18H1V15Z" fill="#D9D9D9"/>
<path d="M0.5 8.5H1V17.5H0.5V8.5Z" fill="#D9D9D9"/>
<path d="M23 8.5H23.5V17.5H23V8.5Z" fill="#D9D9D9"/>
<path d="M3 17.5H5V18H3V17.5Z" fill="#D9D9D9"/>
<path d="M19 17.5H21V18H19V17.5Z" fill="#D9D9D9"/>
<path d="M0.5 7.25H23.5V7.75H0.5V7.25Z" fill="#D9D9D9"/>
<path d="M7.875 7.125V9.875H6.125V7.125H7.875Z" fill="white" stroke="#D9D9D9" stroke-width="0.25"/>
<path d="M17.875 7.125V9.875H16.125V7.125H17.875Z" fill="white" stroke="#D9D9D9" stroke-width="0.25"/>
<path d="M3.5 6.75H5V7.5H3.5V6.75Z" fill="#D9D9D9"/>
<path d="M19 6.75H20.5V7.5H19V6.75Z" fill="#D9D9D9"/>
<path d="M3.5 17.75H5V18.5H3.5V17.75Z" fill="#D9D9D9"/>
<path d="M19 17.75H20.5V18.5H19V17.75Z" fill="#D9D9D9"/>
<path d="M6.5 7H7.5V8H6.5V7Z" fill="#D9D9D9"/>
<path d="M16.5 8.5H17.5V9.5H16.5V8.5Z" fill="#D9D9D9"/>
<path d="M6.5 8.5H7.5V9.5H6.5V8.5Z" fill="#D9D9D9"/>
<path d="M16.5 8.5H17.5V9.5H16.5V8.5Z" fill="#D9D9D9"/>
<path d="M16.5 7H17.5V8H16.5V7Z" fill="#D9D9D9"/>
<path d="M16.5 7H17.5V8H16.5V7Z" fill="#D9D9D9"/>
</svg>
