<svg width="24" height="24" viewBox="0 0 24 24" fill="none" xmlns="http://www.w3.org/2000/svg">
<path d="M14.875 6.63477L16.9375 7.95215L17.1885 9.76172L18.0723 9.65918L18.7373 13.1445L21.5723 14.2686L22.5 19L21 20H13.0332L12.5498 20.5H2.35156L1.66406 16.5479L2.35156 12.5957L5.78906 10.6191H6.30273L6.07324 10.7578L7.57324 13.2588L7.69629 13.4629L7.93164 13.4971L11.21 13.9648L12.9727 16.6094L12.5059 19.416L13 19.5L13.4941 19.585L13.9951 16.584L14.0264 16.3906L13.917 16.2256L11.917 13.2256L11.499 13.5L11.5684 13.0039L8.30371 12.5361L6.92676 10.2422L6.57324 10.4551L8 5.97656L12.8125 4L14.875 6.63477ZM13.3389 10.5273L13.1914 10.5752L13.0977 10.7002L11.5977 12.6992L12.4023 13.2998L13.8076 11.4238L16.6611 10.4736L16.3389 9.52637L13.3389 10.5273Z" fill="#D9D9D9"/>
</svg>
