<svg width="24" height="24" viewBox="0 0 24 24" fill="none" xmlns="http://www.w3.org/2000/svg">
<path d="M2 21H22V22H2V21Z" fill="#D9D9D9"/>
<path fill-rule="evenodd" clip-rule="evenodd" d="M22 8V9H21V20.5H18V10.5H6V20.5H3V9H2V8L12 5L22 8Z" fill="#D9D9D9"/>
<path d="M6.5 16V18H9V16H6.5Z" fill="#D9D9D9"/>
<path d="M6.5 18.5V20.5H9V18.5H6.5Z" fill="#D9D9D9"/>
<path d="M6.5 13.5V15.5H9V14.5V13.5H6.5Z" fill="#D9D9D9"/>
<path d="M10 17V19H12.5V18V17H10Z" fill="#D9D9D9"/>
<path d="M13.5 16V17L14.5 16H16.5V18H17.5V19.5H13.5V20H11.5V19.5H13V16H13.5ZM15 16.5L13.5 18V18.5H14.5L15 18H16V16.5H15Z" fill="#D9D9D9"/>
<path d="M14.75 19.75C14.75 20.1642 14.4142 20.5 14 20.5C13.5858 20.5 13.25 20.1642 13.25 19.75C13.25 19.3358 13.5858 19 14 19C14.4142 19 14.75 19.3358 14.75 19.75Z" fill="#D9D9D9"/>
<path d="M17.25 19.75C17.25 20.1642 16.9142 20.5 16.5 20.5C16.0858 20.5 15.75 20.1642 15.75 19.75C15.75 19.3358 16.0858 19 16.5 19C16.9142 19 17.25 19.3358 17.25 19.75Z" fill="#D9D9D9"/>
</svg>
